<svg width="260" height="260" viewBox="0 0 260 260" fill="none" xmlns="http://www.w3.org/2000/svg">
<g clip-path="url(#clip0_1224_173)">
<path d="M122.687 151.887C114.204 153.584 111.612 135.628 111.376 126.438L121.98 125.024L129.049 139.163C130.463 142.697 131.17 150.19 122.687 151.887Z" fill="#FFF0E0" stroke="#545454" stroke-width="1.36522"/>
<path d="M122.048 139.142C122.614 140.274 124.169 140.556 124.876 140.556C126.996 139.849 130.531 137.729 129.118 133.487C127.704 129.246 122.755 129.246 120.634 131.366C118.514 133.487 121.341 137.729 122.048 139.142Z" fill="#2A59A5" stroke="#545454" stroke-width="1.36522"/>
<path d="M157.326 108.06C160.559 120.23 160.427 131.136 155.599 132.419C150.771 133.702 144.236 124.876 141.002 112.706C137.769 100.536 139.062 89.6303 143.891 88.3475C148.719 87.0647 154.093 95.8896 157.326 108.06Z" fill="#2A59A5" stroke="#545454" stroke-width="1.36522"/>
<path d="M152.378 111.593C150.257 100.989 142.245 104.523 137.533 107.351L141.067 119.369C144.602 121.018 154.374 121.575 152.378 111.593Z" fill="#04CBAB" stroke="#545454" stroke-width="1.36522"/>
<path d="M103.6 125.024C98.7749 114.172 124.336 103.11 134.704 99.5752L142.48 125.024C129.52 129.972 106.428 131.386 103.6 125.024Z" fill="#FFF0E0" stroke="#545454" stroke-width="1.36522"/>
<path fill-rule="evenodd" clip-rule="evenodd" d="M155.999 139.256C163.195 137.345 165.635 123.025 161.45 107.273C157.266 91.5205 148.039 80.3005 140.844 82.2122C133.648 84.1239 131.207 98.4434 135.392 114.196C139.577 129.948 148.803 141.168 155.999 139.256ZM155.599 132.419C160.428 131.136 160.56 120.229 157.326 108.059C154.093 95.8891 148.719 87.0643 143.891 88.347C139.063 89.6298 137.77 100.535 141.003 112.706C144.236 124.876 150.771 133.702 155.599 132.419Z" fill="#04CBAB" stroke="#545454" stroke-width="1.36522"/>
<path d="M120.08 129.242C115.162 122.875 113.678 115.721 113.898 109.273C106.59 113.893 101.137 119.486 103.6 125.025C105.065 128.32 111.966 129.529 120.08 129.242Z" fill="#2A59A5" stroke="#545454" stroke-width="1.36522"/>
<path d="M-0.473977 233.315C-8.88743 234.997 -11.4582 217.189 -11.6919 208.074L-1.17509 206.672L5.83612 220.694C7.23836 224.2 7.93947 231.632 -0.473977 233.315Z" fill="#FFF0E0" stroke="#545454" stroke-width="1.35402"/>
<path d="M-1.10738 220.674C-0.546492 221.796 0.995975 222.076 1.69709 222.076C3.80027 221.375 7.30629 219.272 5.90405 215.065C4.50178 210.858 -0.406258 210.858 -2.50961 212.961C-4.613 215.065 -1.80849 219.271 -1.10738 220.674Z" fill="#2A59A5" stroke="#545454" stroke-width="1.35402"/>
<path d="M33.8807 189.845C37.0877 201.916 36.9566 212.733 32.1679 214.005C27.3793 215.277 20.8977 206.524 17.6909 194.454C14.4842 182.383 15.7666 171.567 20.5554 170.295C25.3443 169.022 30.6742 177.775 33.8807 189.845Z" fill="#2A59A5" stroke="#545454" stroke-width="1.35402"/>
<path d="M28.973 193.351C26.8695 182.835 18.9237 186.34 14.2495 189.145L17.7551 201.064C21.2607 202.7 30.9532 203.251 28.973 193.351Z" fill="#04CBAB" stroke="#545454" stroke-width="1.35402"/>
<path d="M-19.4052 206.672C-24.1904 195.909 1.16101 184.937 11.4441 181.432L19.1565 206.672C6.30255 211.58 -16.5998 212.982 -19.4052 206.672Z" fill="#FFF0E0" stroke="#545454" stroke-width="1.35402"/>
<path fill-rule="evenodd" clip-rule="evenodd" d="M32.5643 220.787C39.7009 218.891 42.1218 204.689 37.9709 189.066C33.8204 173.442 24.67 162.314 17.5334 164.21C10.3967 166.106 7.976 180.309 12.1266 195.932C16.2773 211.555 25.4276 222.683 32.5643 220.787ZM32.168 214.005C36.9571 212.733 37.0877 201.916 33.8808 189.846C30.6742 177.775 25.3444 169.023 20.5554 170.295C15.7667 171.567 14.4842 182.384 17.691 194.454C20.8977 206.524 27.3793 215.278 32.168 214.005Z" fill="#04CBAB" stroke="#545454" stroke-width="1.35402"/>
<path d="M251.526 233.315C243.113 234.997 240.542 217.189 240.308 208.074L250.825 206.672L257.836 220.694C259.238 224.2 259.939 231.632 251.526 233.315Z" fill="#FFF0E0" stroke="#545454" stroke-width="1.35402"/>
<path d="M250.893 220.674C251.454 221.796 252.996 222.076 253.697 222.076C255.8 221.375 259.306 219.272 257.904 215.065C256.502 210.858 251.594 210.858 249.49 212.961C247.387 215.065 250.192 219.271 250.893 220.674Z" fill="#2A59A5" stroke="#545454" stroke-width="1.35402"/>
<path d="M232.595 206.672C227.81 195.909 253.161 184.937 263.444 181.432L271.156 206.672C258.303 211.58 235.4 212.982 232.595 206.672Z" fill="#FFF0E0" stroke="#545454" stroke-width="1.35402"/>
<path fill-rule="evenodd" clip-rule="evenodd" d="M284.564 220.787C291.701 218.891 294.122 204.689 289.971 189.066C285.82 173.442 276.67 162.314 269.533 164.21C262.397 166.106 259.976 180.309 264.127 195.932C268.277 211.555 277.428 222.683 284.564 220.787ZM284.168 214.005C288.957 212.733 289.088 201.916 285.881 189.846C282.674 177.775 277.344 169.023 272.555 170.295C267.767 171.567 266.484 182.384 269.691 194.454C272.898 206.524 279.379 215.278 284.168 214.005Z" fill="#04CBAB" stroke="#545454" stroke-width="1.35402"/>
<path d="M248.94 210.856C244.063 204.541 242.591 197.446 242.809 191.051C235.56 195.632 230.153 201.18 232.595 206.673C234.048 209.942 240.893 211.141 248.94 210.856Z" fill="#2A59A5" stroke="#545454" stroke-width="1.35402"/>
<path fill-rule="evenodd" clip-rule="evenodd" d="M-3.59877 54.0984C-0.0270819 55.5336 9.62478 57.5423 19.6585 54.0984C23.2715 36.1162 28.4847 0.151461 20.4328 0.151461C20.4328 0.151461 3.49302 -1.18018 -6.72659 4.0535C-9.08019 7.11937 -6.37831 37.2209 -5.98332 42.1756C-5.43828 49.0136 -4.00134 53.3036 -3.59877 54.0984ZM17.9747 52.3116C9.35434 55.4918 1.06214 53.6369 -2.00639 52.3116C-2.35226 51.5774 -3.5868 47.6153 -4.05505 41.3005C-4.39438 36.7245 -7.38604 8.55722 -5.36398 5.72577C3.41598 0.892365 18.6398 2.4901 18.6398 2.4901C25.2329 2.4901 21.0787 35.7043 17.9747 52.3116Z" fill="#04CBAB"/>
<path d="M-2.0062 52.3119C1.06232 53.6371 9.35453 55.4921 17.9748 52.3119C21.0788 35.7046 25.2331 2.49039 18.64 2.49039C18.64 2.49039 3.41616 0.892653 -5.3638 5.72606C-7.38585 8.5575 -4.3942 36.7248 -4.05486 41.3008C-3.58662 47.6156 -2.35208 51.5777 -2.0062 52.3119Z" fill="#04CBAB"/>
<path d="M-6.72636 4.0535C-6.72636 4.0535 -11 5.91158 -11 7.92456C-11 9.93749 -9.98423 50.3638 -7.90316 52.0236C-5.82208 53.6835 -4.16629 54.0984 -3.59854 54.0984M-6.72636 4.0535C3.49325 -1.18018 20.433 0.151461 20.433 0.151461C28.4849 0.151461 23.2717 36.1162 19.6588 54.0984C9.62501 57.5423 -0.0268508 55.5336 -3.59854 54.0984M-6.72636 4.0535C-9.07996 7.11937 -6.37808 37.2209 -5.98309 42.1756C-5.43805 49.0136 -4.00111 53.3036 -3.59854 54.0984M-2.00615 52.3116C1.06237 53.6369 9.35457 55.4918 17.9749 52.3116C21.0789 35.7043 25.2331 2.4901 18.64 2.4901C18.64 2.4901 3.41621 0.892365 -5.36375 5.72577C-7.38581 8.55722 -4.39415 36.7245 -4.05482 41.3005C-3.58657 47.6153 -2.35203 51.5774 -2.00615 52.3116Z" stroke="#545454" stroke-width="1.09217"/>
<path fill-rule="evenodd" clip-rule="evenodd" d="M-3.59879 54.0984C-0.0270679 55.5336 9.62476 57.5423 19.6585 54.0984C23.2715 36.1162 28.4847 0.151461 20.4328 0.151461C20.4328 0.151461 3.493 -1.18018 -6.72658 4.0535C-9.0802 7.11937 -6.3783 37.2209 -5.98334 42.1756C-5.4383 49.0136 -4.00136 53.3036 -3.59879 54.0984Z" fill="#04CBAB" stroke="#545454" stroke-width="1.09217"/>
<path fill-rule="evenodd" clip-rule="evenodd" d="M17.5388 50.8604C9.67341 53.8698 2.10746 52.1143 -0.692332 50.8604C-1.00791 50.1658 -2.13431 46.4166 -2.56155 40.4413C-2.87115 36.1116 -5.60078 9.45886 -3.75584 6.77969C4.25515 2.20616 18.1456 3.71799 18.1456 3.71799C24.1613 3.71799 20.3709 35.1463 17.5388 50.8604Z" fill="#FFF0E0"/>
<path d="M-0.692332 50.8604C2.10746 52.1143 9.67341 53.8698 17.5388 50.8604C20.3709 35.1463 24.1613 3.71799 18.1456 3.71799C18.1456 3.71799 4.25515 2.20616 -3.75584 6.77969C-5.60078 9.45886 -2.87115 36.1116 -2.56155 40.4413C-2.13431 46.4166 -1.00791 50.1658 -0.692332 50.8604Z" fill="#FFF0E0"/>
<path d="M-2.56155 40.4413C-2.13431 46.4166 -1.00791 50.1658 -0.692332 50.8604C2.10746 52.1143 9.67341 53.8698 17.5388 50.8604C20.3709 35.1463 24.1613 3.71799 18.1456 3.71799C18.1456 3.71799 4.25515 2.20616 -3.75584 6.77969C-5.60078 9.45886 -2.87115 36.1116 -2.56155 40.4413ZM-2.56155 40.4413L-0.39334 39.0162C-0.39334 39.0162 0.945129 36.2695 0.963981 36.2305L2.37539 33.303C2.44816 33.1521 2.66423 33.1838 2.69376 33.3497L3.60189 38.4493C3.63574 38.6392 3.89748 38.6416 3.93473 38.4524L4.78022 34.1561C4.81362 33.9863 5.03859 33.9637 5.10283 34.1237L6.41181 37.3815C6.47209 37.5317 6.67956 37.5237 6.72913 37.3696L7.80954 34.0082C7.85775 33.8582 8.05751 33.8453 8.12332 33.9879L9.03595 35.9669C9.09681 36.099 9.27744 36.1004 9.34054 35.9696L10.7345 33.0785C10.7897 32.9639 10.9408 32.9471 11.0182 33.0469L12.8211 35.3714C12.8858 35.4549 13.0066 35.4594 13.0771 35.3811L15.1866 33.0409C15.2726 32.9455 15.4253 32.9772 15.4693 33.0996L16.5758 36.1769C16.6005 36.2455 16.6638 36.2914 16.7346 36.2914H19.9794" stroke="#545454" stroke-width="1.09217"/>
<path fill-rule="evenodd" clip-rule="evenodd" d="M8.4794 29.757C13.3197 29.757 17.2435 25.2446 17.2435 19.6783C17.2435 14.112 13.3197 9.59961 8.4794 9.59961C3.63916 9.59961 -0.284668 14.112 -0.284668 19.6783C-0.284668 25.2446 3.63916 29.757 8.4794 29.757ZM6.7266 15.7345C6.7266 14.7664 7.51136 13.9817 8.4794 13.9817C9.44747 13.9817 10.2322 14.7664 10.2322 15.7345V20.1165C10.2322 21.0846 9.44747 21.8693 8.4794 21.8693C7.51136 21.8693 6.7266 21.0846 6.7266 20.1165V15.7345ZM4.97377 18.8019C5.4578 18.8019 5.85018 19.1943 5.85018 19.6783V20.1165C5.85018 21.5686 7.02733 22.7458 8.4794 22.7458C9.93147 22.7458 11.1086 21.5686 11.1086 20.1165V19.6783C11.1086 19.1943 11.501 18.8019 11.985 18.8019C12.4691 18.8019 12.8614 19.1943 12.8614 19.6783V20.1165C12.8614 22.2365 11.356 24.0049 9.35582 24.4109V25.375C9.35582 25.859 8.96343 26.2514 8.4794 26.2514C7.99536 26.2514 7.60298 25.859 7.60298 25.375V24.4109C5.60281 24.0049 4.09735 22.2365 4.09735 20.1165V19.6783C4.09735 19.1943 4.48973 18.8019 4.97377 18.8019Z" fill="#04CBAB"/>
<path fill-rule="evenodd" clip-rule="evenodd" d="M142.401 246.098C145.973 247.534 155.625 249.542 165.659 246.098C169.271 228.116 174.485 192.151 166.433 192.151C166.433 192.151 149.493 190.82 139.273 196.053C136.92 199.119 139.622 229.221 140.017 234.176C140.562 241.014 141.999 245.304 142.401 246.098ZM163.975 244.312C155.354 247.492 147.062 245.637 143.994 244.312C143.648 243.577 142.413 239.615 141.945 233.301C141.606 228.725 138.614 200.557 140.636 197.726C149.416 192.892 164.64 194.49 164.64 194.49C171.233 194.49 167.079 227.704 163.975 244.312Z" fill="#04CBAB"/>
<path d="M139.274 196.053C139.274 196.053 135 197.911 135 199.924C135 201.937 136.016 242.363 138.097 244.023C140.178 245.683 141.834 246.098 142.401 246.098C141.999 245.303 140.562 241.013 140.017 234.175C139.622 229.22 136.92 199.119 139.274 196.053Z" fill="#04CBAB"/>
<path d="M143.994 244.312C147.062 245.637 155.355 247.492 163.975 244.312C167.079 227.705 171.233 194.49 164.64 194.49C164.64 194.49 149.416 192.893 140.636 197.726C138.614 200.558 141.606 228.725 141.945 233.301C142.413 239.616 143.648 243.578 143.994 244.312Z" fill="#04CBAB"/>
<path d="M139.274 196.053C139.274 196.053 135 197.912 135 199.925C135 201.937 136.016 242.364 138.097 244.024C140.178 245.683 141.834 246.098 142.401 246.098M139.274 196.053C149.493 190.82 166.433 192.151 166.433 192.151C174.485 192.151 169.272 228.116 165.659 246.098C155.625 249.542 145.973 247.534 142.401 246.098M139.274 196.053C136.92 199.119 139.622 229.221 140.017 234.176C140.562 241.014 141.999 245.304 142.401 246.098M143.994 244.312C147.062 245.637 155.355 247.492 163.975 244.312C167.079 227.704 171.233 194.49 164.64 194.49C164.64 194.49 149.416 192.892 140.636 197.726C138.614 200.557 141.606 228.725 141.945 233.301C142.413 239.615 143.648 243.577 143.994 244.312Z" stroke="#545454" stroke-width="1.09217"/>
<path fill-rule="evenodd" clip-rule="evenodd" d="M142.401 246.098C145.973 247.534 155.625 249.542 165.659 246.098C169.272 228.116 174.485 192.151 166.433 192.151C166.433 192.151 149.493 190.82 139.273 196.053C136.92 199.119 139.622 229.221 140.017 234.176C140.562 241.014 141.999 245.304 142.401 246.098Z" fill="#04CBAB" stroke="#545454" stroke-width="1.09217"/>
<path fill-rule="evenodd" clip-rule="evenodd" d="M163.539 242.86C155.673 245.87 148.107 244.114 145.308 242.86C144.992 242.166 143.866 238.417 143.438 232.441C143.129 228.112 140.399 201.459 142.244 198.78C150.255 194.206 164.146 195.718 164.146 195.718C170.161 195.718 166.371 227.146 163.539 242.86Z" fill="#FFF0E0"/>
<path d="M145.308 242.86C148.107 244.114 155.673 245.87 163.539 242.86C166.371 227.146 170.161 195.718 164.146 195.718C164.146 195.718 150.255 194.206 142.244 198.78C140.399 201.459 143.129 228.112 143.438 232.441C143.866 238.417 144.992 242.166 145.308 242.86Z" fill="#FFF0E0"/>
<path d="M143.438 232.441C143.866 238.417 144.992 242.166 145.308 242.86C148.107 244.114 155.673 245.87 163.539 242.86C166.371 227.146 170.161 195.718 164.146 195.718C164.146 195.718 150.255 194.206 142.244 198.78C140.399 201.459 143.129 228.112 143.438 232.441ZM143.438 232.441L145.607 231.016C145.607 231.016 146.945 228.269 146.964 228.231L148.375 225.303C148.448 225.152 148.664 225.184 148.694 225.35L149.602 230.449C149.636 230.639 149.897 230.642 149.935 230.452L150.78 226.156C150.814 225.986 151.039 225.964 151.103 226.124L152.412 229.381C152.472 229.532 152.68 229.524 152.729 229.37L153.81 226.008C153.858 225.858 154.058 225.845 154.123 225.988L155.036 227.967C155.097 228.099 155.277 228.1 155.341 227.97L156.734 225.079C156.79 224.964 156.941 224.947 157.018 225.047L158.821 227.371C158.886 227.455 159.007 227.459 159.077 227.381L161.187 225.041C161.273 224.945 161.425 224.977 161.469 225.1L162.576 228.177C162.601 228.245 162.664 228.291 162.735 228.291H165.979" stroke="#545454" stroke-width="1.09217"/>
<path fill-rule="evenodd" clip-rule="evenodd" d="M154.479 221.757C159.32 221.757 163.243 217.245 163.243 211.678C163.243 206.112 159.32 201.6 154.479 201.6C149.639 201.6 145.715 206.112 145.715 211.678C145.715 217.245 149.639 221.757 154.479 221.757ZM152.727 207.734C152.727 206.766 153.511 205.982 154.479 205.982C155.447 205.982 156.232 206.766 156.232 207.734V212.117C156.232 213.085 155.447 213.869 154.479 213.869C153.511 213.869 152.727 213.085 152.727 212.117V207.734ZM150.974 210.802C151.458 210.802 151.85 211.194 151.85 211.678V212.117C151.85 213.569 153.027 214.746 154.479 214.746C155.931 214.746 157.109 213.569 157.109 212.117V211.678C157.109 211.194 157.501 210.802 157.985 210.802C158.469 210.802 158.861 211.194 158.861 211.678V212.117C158.861 214.237 157.356 216.005 155.356 216.411V217.375C155.356 217.859 154.963 218.251 154.479 218.251C153.995 218.251 153.603 217.859 153.603 217.375V216.411C151.603 216.005 150.097 214.237 150.097 212.117V211.678C150.097 211.194 150.49 210.802 150.974 210.802Z" fill="#04CBAB"/>
<path d="M24.2602 118.639L24.251 129.604C24.2402 131.583 25.9653 133.18 28.1041 133.172L49.3001 133.095C51.4389 133.088 53.1815 131.477 53.1923 129.499L53.198 118.639H24.2602V118.639Z" fill="#02022B"/>
<path d="M49.951 76.8566H27.5176C25.379 76.8749 24.2529 78.6752 24.252 80.6538V128.47C24.2509 130.449 25.9837 132.038 28.1223 132.019L49.3168 131.838C51.4554 131.819 53.2156 130.201 53.2167 128.222V80.4058C53.2178 78.4273 52.0897 76.8382 49.951 76.8566Z" fill="#04CBAB"/>
<path d="M37.2549 129.481C37.2508 130.237 37.9098 130.847 38.7268 130.844C39.5439 130.841 40.2097 130.226 40.2138 129.47C40.2178 128.715 39.5589 128.104 38.7418 128.107C37.9248 128.111 37.259 128.726 37.2549 129.481Z" fill="#02022B"/>
<path d="M25.7017 80.0596V125.914C25.6977 126.633 26.3241 127.213 27.1007 127.21L50.3446 127.129C51.1212 127.126 51.6198 126.633 51.6237 125.914V80.0596H25.7017Z" fill="white"/>
<mask id="mask0_1224_173" style="mask-type:luminance" maskUnits="userSpaceOnUse" x="25" y="80" width="27" height="48">
<path d="M25.7007 80.0615V125.916C25.6968 126.635 26.3232 127.215 27.0998 127.212L50.3436 127.131C51.1202 127.128 51.6188 126.635 51.6227 125.916V80.0615H25.7007Z" fill="white"/>
</mask>
<g mask="url(#mask0_1224_173)">
<path d="M34.3281 118.588H25.5498V127.366H34.3281V118.588Z" fill="#9CAEE8"/>
<path d="M43.1177 118.588H34.3394V127.366H43.1177V118.588Z" fill="white"/>
<path d="M51.9185 118.588H43.1401V127.366H51.9185V118.588Z" fill="#9CAEE8"/>
<path d="M29.9386 123.258C28.4443 123.258 27.2329 124.469 27.2329 125.964H32.6442C32.6443 124.469 31.4329 123.258 29.9386 123.258Z" fill="white"/>
<path d="M29.9388 122.861C30.7316 122.861 31.3743 122.218 31.3743 121.426C31.3743 120.633 30.7316 119.99 29.9388 119.99C29.146 119.99 28.5034 120.633 28.5034 121.426C28.5034 122.218 29.1462 122.861 29.9388 122.861Z" fill="white"/>
<path d="M40.5896 119.447C39.7817 119.447 39.0937 119.954 38.8212 120.666C38.5489 119.954 37.8609 119.447 37.0528 119.447C36.0064 119.447 35.1582 120.295 35.1582 121.342C35.1582 123.864 38.8212 126.506 38.8212 126.506C38.8212 126.506 42.4842 123.864 42.4842 121.342C42.4842 120.295 41.636 119.447 40.5896 119.447Z" fill="#04CBAB"/>
<path d="M41.4476 122.542L39.4987 122.53L39.1634 121.524C39.1254 121.41 39.0195 121.338 38.9066 121.348C38.7947 121.353 38.6997 121.428 38.6695 121.536L38.0996 123.571L37.7303 120.524C37.7157 120.404 37.6179 120.309 37.4959 120.298C37.3742 120.288 37.2637 120.362 37.2275 120.477L36.6116 122.428H34.7163C34.5739 122.428 34.458 122.544 34.458 122.686C34.458 122.829 34.5739 122.944 34.7163 122.944H36.801C36.9142 122.944 37.0132 122.872 37.0474 122.764L37.361 121.771L37.7426 124.919C37.7574 125.041 37.8569 125.136 37.9822 125.146C37.9878 125.146 37.9935 125.146 37.9992 125.146C38.1144 125.146 38.2167 125.069 38.2478 124.958L38.9398 122.487L39.0672 122.869C39.1021 122.974 39.2 123.045 39.3107 123.045L41.4462 123.058C41.5877 123.058 41.7036 122.943 41.7046 122.801C41.7052 122.659 41.5901 122.543 41.4476 122.542Z" fill="white"/>
<path d="M48.4875 119.99H46.5718V125.963H48.4875V119.99Z" fill="white"/>
<path d="M50.5161 123.934V122.019H44.5433V123.934H50.5161Z" fill="white"/>
</g>
<path d="M20.8815 94.8544C20.5702 92.2891 20.4367 90.2761 20.4415 90.0002C20.4623 88.8829 22.3297 88.873 22.4873 89.1699C22.6636 89.5019 23.3351 91.7797 24.0693 94.3264C23.0067 94.5015 21.944 94.6775 20.8815 94.8544Z" fill="#FFBABA"/>
<path d="M20.5371 91.4944C20.6086 92.3607 20.7216 93.5343 20.8819 94.8553C21.9444 94.6784 23.007 94.5024 24.0696 94.3273C23.7305 93.1512 23.405 92.033 23.1353 91.1367C22.3053 91.2128 21.3992 91.3132 20.5371 91.4944Z" fill="#E06F6F"/>
<path d="M22.6292 89.7369C23.7331 89.1952 22.9925 82.1983 22.2912 82.2394C21.6775 82.2786 22.0088 85.4807 21.8885 85.4665C21.7297 85.4489 21.5664 85.1333 21.4002 85.1004C21.2475 85.0703 21.0255 85.3852 21.0255 85.3852C21.0255 85.3852 20.3367 84.7948 20.0586 85.3622C19.9918 85.4982 19.8997 85.885 19.8997 85.885C19.8997 85.885 19.4953 85.7236 19.4229 85.8154C19.3048 85.9651 19.2201 86.1454 19.1793 86.3607C19.1258 86.6392 19.1768 88.6645 19.5683 89.3945C19.8341 89.8918 20.377 90.1519 20.9194 90.1717" fill="#FFBABA"/>
<path d="M21.6692 88.5747C21.6674 88.5747 21.6655 88.5745 21.6638 88.5745C21.6041 88.5715 21.5582 88.5208 21.561 88.4612C21.5752 88.1721 21.7068 87.9261 21.8299 87.7559C21.3279 87.66 20.6552 87.4151 20.6262 86.9632C20.6205 86.8746 20.646 86.743 20.7995 86.6185C21.1415 86.3411 21.9513 86.2397 22.5328 86.4017C22.5904 86.4178 22.6241 86.4774 22.6079 86.535C22.592 86.5927 22.5326 86.6267 22.4746 86.6103C21.9691 86.4696 21.2211 86.5552 20.9357 86.7868C20.8701 86.84 20.8386 86.8949 20.842 86.9497C20.8616 87.2548 21.4766 87.498 22.0456 87.5719C22.0856 87.5771 22.1194 87.604 22.1333 87.6418C22.1471 87.6797 22.1389 87.722 22.1117 87.752C21.9935 87.8822 21.7929 88.1487 21.777 88.472C21.7743 88.5295 21.7266 88.5747 21.6692 88.5747Z" fill="#E06F6F"/>
<path d="M20.9178 86.7286C20.8735 86.7286 20.832 86.7014 20.8161 86.6573C20.6379 86.166 20.8332 85.2172 21.2449 85.0161C21.4154 84.9332 21.6814 84.9338 21.9804 85.4103C22.0122 85.461 21.9969 85.5278 21.9464 85.5596C21.8957 85.5912 21.8288 85.5761 21.7972 85.5256C21.6792 85.3378 21.5043 85.1312 21.3398 85.2107C21.0606 85.3472 20.8688 86.1683 21.0195 86.5836C21.0398 86.6398 21.0108 86.7019 20.9546 86.7223C20.9425 86.7266 20.93 86.7286 20.9178 86.7286Z" fill="#E06F6F"/>
<path d="M20.6728 88.2828C20.4946 88.2828 20.3279 88.1781 20.1938 87.9755C19.7374 87.2859 19.6621 85.5065 20.1941 85.0947C20.3611 84.9656 20.6489 84.9099 21.0714 85.3793C21.1114 85.4237 21.1078 85.4922 21.0634 85.5322C21.0188 85.572 20.9505 85.5686 20.9105 85.5242C20.7388 85.3332 20.4974 85.1334 20.3266 85.2658C19.9249 85.5769 19.9552 87.2228 20.3742 87.856C20.5558 88.1304 20.7226 88.0802 20.8324 88.0189C20.8842 87.9896 20.9503 88.0082 20.9798 88.0605C21.0091 88.1126 20.9905 88.1785 20.9382 88.2078C20.8486 88.258 20.7594 88.2828 20.6728 88.2828Z" fill="#E06F6F"/>
<path d="M19.8485 88.0516C19.6752 88.0516 19.5116 87.9574 19.377 87.7742C19.0206 87.2885 18.8948 86.1629 19.2583 85.8331C19.3611 85.7396 19.5895 85.6325 19.9612 85.9658C20.0058 86.0056 20.0095 86.0741 19.9697 86.1187C19.9297 86.1634 19.8614 86.167 19.8168 86.1272C19.6882 86.0119 19.5119 85.8951 19.4038 85.9935C19.1665 86.2087 19.2117 87.1833 19.5514 87.6462C19.7636 87.9352 19.9637 87.8179 20.0295 87.7795C20.0808 87.7495 20.1473 87.7666 20.1775 87.8183C20.2077 87.8699 20.1903 87.9362 20.1388 87.9662C20.0413 88.0232 19.9434 88.0516 19.8485 88.0516Z" fill="#E06F6F"/>
<path d="M33.9096 87.9503C32.3901 87.2102 30.872 86.4648 29.3554 85.7139C27.9946 87.2165 24.4312 92.9018 25.1675 97.1729C24.7637 94.8303 23.7797 91.5834 23.5641 91.0977C22.4389 91.371 21.314 91.6459 20.1893 91.9222C20.1566 91.9255 21.0868 103.617 25.9209 103.968C29.6263 103.03 33.854 87.9213 33.9096 87.9503Z" fill="#D2E0FD"/>
<path d="M31.8869 93.9921C31.0242 91.2277 30.1806 88.4513 29.3561 85.6631C29.3354 85.648 26.5475 96.8386 26.8836 103.444C28.7113 101.928 30.5317 97.6536 31.8869 93.9921Z" fill="#9CAEE8"/>
<path d="M41.467 85.2907C39.3087 85.0196 36.6671 84.9054 34.1829 85.1047C34.1564 85.1067 33.1039 85.3022 33.1039 85.3022C32.3512 96.5573 31.8676 107.205 31.7495 118.516C36.3492 118.427 41.0233 118.608 45.6228 118.516C45.5406 117.078 45.1088 110.492 44.5073 102.262C43.8972 93.9152 43.0755 85.5026 41.467 85.2907Z" fill="#9CAEE8"/>
<path d="M48.0766 118.543C47.4669 113.662 46.9169 108.768 46.4295 103.863C46.3612 97.9295 46.3827 91.9954 46.494 86.0626C44.5611 85.7362 42.6286 85.4072 40.6961 85.0752C39.5938 91.033 38.5811 97.0219 37.6597 103.04C38.0896 108.218 38.5885 113.386 39.1527 118.543H48.0766Z" fill="#D2E0FD"/>
<path d="M37.9353 118.543C37.7766 113.376 37.6836 108.208 37.6593 103.04C36.1422 97.1335 34.7128 91.1831 33.3729 85.1904C32.0335 85.3726 30.694 85.5561 29.3547 85.7411C28.9928 91.8422 28.7233 97.9521 28.5463 104.069C28.4484 108.891 28.4095 113.716 28.4268 118.543H37.9353Z" fill="#D2E0FD"/>
<path d="M34.7779 76.0574C34.7634 76.0194 25.7047 83.7879 39.5898 84.2997C42.9676 84.4193 45.1565 83.1988 44.9679 79.196C44.8785 77.246 44.2294 74.6345 42.9106 71.1592C40.9837 71.3431 34.7724 76.0429 34.7779 76.0574Z" fill="#02022B"/>
<path d="M44.9671 79.1972C44.7159 82.4476 42.7165 83.4749 39.7495 83.3613C33.1712 83.1103 31.8978 81.0638 32.3307 79.0449C31.1982 81.2796 31.57 84.016 39.5891 84.3008C42.9637 84.4203 45.1305 83.1947 44.9671 79.1972Z" fill="#04CBAB"/>
<path d="M40.2527 85.1552C39.3085 85.0193 35.9455 84.8984 34.1826 85.1048C34.636 86.8164 36.9374 90.2938 36.9396 90.2903C36.9367 90.2846 40.0578 86.4999 40.2527 85.1552Z" fill="#FFBABA"/>
<path d="M32.0482 91.3226C31.8927 92.1064 32.3854 92.8704 33.1464 93.0272C33.9076 93.184 34.6483 92.6779 34.8029 91.898C34.9575 91.1183 34.468 90.3569 33.7078 90.1959C32.9476 90.0352 32.2036 90.5388 32.0482 91.3226Z" fill="white"/>
<path d="M32.5997 91.4372C32.5065 91.9069 32.8017 92.365 33.2582 92.4596C33.7148 92.5543 34.1595 92.2509 34.2524 91.7826C34.3453 91.3142 34.0512 90.857 33.595 90.761C33.1387 90.6648 32.6927 90.9672 32.5997 91.4372Z" fill="#04CBAB"/>
<path d="M39.1415 96.8302C40.6692 96.1248 41.825 94.6561 42.1662 92.9935C42.5067 91.3306 42.0227 89.5215 40.899 88.2578C40.8312 88.32 40.7635 88.3822 40.6956 88.4442C41.7617 89.6427 42.2208 91.3593 41.8977 92.937C41.5741 94.5146 40.4774 95.9077 39.0283 96.5761C39.0661 96.661 39.1037 96.7457 39.1415 96.8302Z" fill="white"/>
<path d="M38.6357 96.5442C38.2912 96.6957 38.0724 96.961 38.1469 97.1365C38.2213 97.312 38.5609 97.3309 38.905 97.1792C39.2493 97.0274 39.4682 96.7628 39.3939 96.5875C39.3195 96.4125 38.9801 96.393 38.6357 96.5442Z" fill="white"/>
<path d="M39.132 96.831C39.1978 96.7666 39.2636 96.7022 39.3294 96.6378C38.2266 95.4714 37.7251 93.7487 38.0247 92.1549C38.3238 90.5608 39.4133 89.1518 40.8606 88.4815C40.8226 88.3971 40.7847 88.3129 40.7469 88.2285C39.2205 88.9347 38.0711 90.4209 37.7556 92.1025C37.4395 93.7838 37.9688 95.601 39.132 96.831Z" fill="white"/>
<path d="M39.7068 96.7545C39.9714 97.0248 40.0786 97.3526 39.9459 97.4873C39.8132 97.6221 39.4907 97.5127 39.2257 97.2424C38.9608 96.9721 38.8539 96.6434 38.9869 96.5086C39.1199 96.3739 39.4422 96.4844 39.7068 96.7545Z" fill="white"/>
<path d="M40.7837 88.4274C40.7755 88.4274 40.7673 88.4264 40.7591 88.4245C40.7009 88.411 40.6645 88.3528 40.6781 88.2947C40.6938 88.2267 40.7248 88.1305 40.764 88.0088C40.9526 87.422 41.3451 86.2012 40.8208 85.5145C40.5279 85.1307 39.9755 84.9536 39.1779 84.9895C39.1175 84.9899 39.0677 84.9459 39.0651 84.886C39.0624 84.8264 39.1087 84.7758 39.1685 84.7732C40.0408 84.7344 40.6544 84.9396 40.9929 85.383C41.5858 86.1596 41.1699 87.4532 40.9699 88.0749C40.9325 88.1919 40.9025 88.2843 40.8889 88.3436C40.8772 88.3935 40.8328 88.4274 40.7837 88.4274Z" fill="#04CBAB"/>
<path d="M33.4099 91.7873C33.3659 91.7873 33.3244 91.7602 33.3084 91.7164C33.0353 90.9728 31.7387 87.1776 33.0515 85.4943C33.5522 84.8521 34.3679 84.5862 35.4751 84.7038C35.5346 84.7101 35.5776 84.7635 35.5713 84.8228C35.565 84.8822 35.5124 84.9256 35.4522 84.919C34.4247 84.8098 33.6741 85.0481 33.2223 85.6275C31.98 87.2206 33.2454 90.917 33.5118 91.6418C33.5324 91.698 33.5036 91.7602 33.4476 91.7808C33.435 91.7852 33.4224 91.7873 33.4099 91.7873Z" fill="#04CBAB"/>
<path d="M37.2708 76.9416C36.2572 76.8463 35.2435 76.7508 34.2298 76.655C32.2514 76.4652 32.8119 79.1714 33.5936 79.2403C34.7813 79.3508 35.9691 79.4609 37.1567 79.5704C37.1929 78.694 37.2308 77.8178 37.2708 76.9416Z" fill="#671809"/>
<path d="M39.8678 79.8936C38.4369 79.307 37.007 78.7165 35.5779 78.1221C35.3572 80.6541 35.1527 83.1882 34.9642 85.7244C34.8034 87.8618 38.7653 88.4873 38.9947 86.5111C38.9849 86.4978 39.8569 79.8911 39.8678 79.8936Z" fill="#FFBABA"/>
<path d="M35.0977 83.9684C36.2083 84.8718 38.037 85.0179 39.431 83.1413C39.6468 81.5066 39.8627 79.8915 39.868 79.8928C39.3907 79.6971 38.9135 79.5003 38.4364 79.3037C37.4532 79.8256 36.2278 80.4928 35.3324 81.0321C35.2519 82.0107 35.1734 82.9894 35.0977 83.9684Z" fill="#671809"/>
<path d="M41.9453 79.9022C42.8886 79.9839 44.4782 77.1933 42.0354 77.0381C42.0029 77.9927 41.973 78.9474 41.9453 79.9022Z" fill="#E06F6F"/>
<path d="M42.8414 75.3063C42.9132 73.9417 42.9647 71.7969 40.6048 70.5136C36.9682 68.5282 35.8831 70.5891 34.8699 72.2314C33.8811 73.7721 31.5173 83.6088 37.0444 83.8744C40.0664 84.0164 42.5415 80.9976 42.8414 75.3063Z" fill="#FFBABA"/>
<path d="M40.2377 79.4312C40.1459 79.6641 38.9031 79.378 37.3963 79.348C35.89 79.2977 34.6336 79.517 34.5546 79.2795C34.4669 79.0573 35.7317 78.4125 37.4199 78.4627C39.1086 78.5027 40.3372 79.2141 40.2377 79.4312Z" fill="#FFBABA"/>
<path d="M36.8895 79.5489C36.6248 79.5489 36.5859 79.4631 36.57 79.4277C36.4505 79.1644 36.6281 77.0721 36.7764 76.9941L36.8266 77.09L36.9334 77.1083C36.8537 77.5847 36.6617 79.0268 36.7605 79.3212C36.834 79.3452 37.0924 79.3258 37.3361 79.2768C37.3946 79.2644 37.4516 79.303 37.4634 79.3615C37.4752 79.4201 37.4373 79.4771 37.3786 79.4889C37.162 79.5327 37.0044 79.5489 36.8895 79.5489Z" fill="#E06F6F"/>
<path d="M35.7578 79.9689C36.1334 81.1428 37.8119 81.843 38.8766 79.9275C37.8439 79.8755 36.8066 79.8665 35.7578 79.9689Z" fill="white"/>
<path d="M35.4567 78.1171C35.4452 78.369 35.5952 78.5825 35.7917 78.5936C35.9881 78.605 36.1566 78.4102 36.1681 78.1587C36.1796 77.9071 36.0299 77.6938 35.8334 77.6821C35.6369 77.6705 35.4682 77.8652 35.4567 78.1171Z" fill="#671809"/>
<path d="M38.8878 78.3187C38.8763 78.5692 39.0265 78.7814 39.223 78.7926C39.4195 78.8039 39.5877 78.6103 39.5991 78.3601C39.6104 78.1099 39.4605 77.8979 39.2642 77.8862C39.0679 77.8746 38.8992 78.0682 38.8878 78.3187Z" fill="#671809"/>
<path d="M40.3521 77.4842C40.3014 77.4842 40.2562 77.4485 40.246 77.3968C40.1358 76.8348 39.754 76.6059 39.4335 76.579C39.0492 76.5466 38.6994 76.7685 38.5625 77.1308C38.5414 77.1867 38.4787 77.2152 38.423 77.1938C38.3671 77.1727 38.3389 77.1102 38.36 77.0543C38.5313 76.6007 38.9693 76.3225 39.4516 76.3633C39.851 76.3967 40.325 76.6749 40.4585 77.3553C40.47 77.414 40.4318 77.4708 40.3732 77.4823C40.366 77.4836 40.359 77.4842 40.3521 77.4842Z" fill="#671809"/>
<path d="M34.9328 77.3055C34.9191 77.3055 34.9051 77.3028 34.8916 77.2973C34.8363 77.2745 34.81 77.2112 34.833 77.1559C35.0337 76.67 35.4681 76.3551 35.9394 76.3535C36.3697 76.351 36.7434 76.6117 36.9267 77.0476C36.9498 77.1027 36.9238 77.1662 36.8689 77.1893C36.8133 77.2126 36.7502 77.1865 36.7272 77.1315C36.5794 76.7797 36.2862 76.57 35.9427 76.57C35.9419 76.57 35.941 76.57 35.9402 76.57C35.5566 76.5711 35.2005 76.8335 35.0331 77.2386C35.0156 77.2803 34.9753 77.3055 34.9328 77.3055Z" fill="#671809"/>
<path d="M42.3742 72.2471C42.7243 73.1819 42.6922 74.1486 42.6523 74.8862C42.3485 80.5794 39.8712 83.5976 36.8494 83.4534C35.4308 83.383 34.5307 82.6788 33.9941 81.6433C34.4965 82.9066 35.4389 83.7966 37.044 83.875C40.0658 84.017 42.541 80.9981 42.8409 75.3067C42.8861 74.4577 42.9219 73.305 42.3742 72.2471Z" fill="#E06F6F"/>
<path d="M40.6045 70.5136C36.968 68.5282 35.8828 70.5891 34.8696 72.2314C34.5376 72.7679 34.0263 74.2839 33.7354 76.0572C35.2748 75.757 36.7556 75.2186 38.0866 74.4677C37.9892 74.9251 37.7294 75.3526 37.3543 75.6725C38.2198 75.66 39.072 75.3933 39.7692 74.9395C40.2768 76.1677 41.3002 77.5485 42.3776 78.5335C42.6173 77.5789 42.7772 76.5032 42.8411 75.3061C42.9127 73.9415 42.9644 71.7969 40.6045 70.5136Z" fill="#E06F6F"/>
<path d="M26.8602 109.764C25.5282 105.88 23.9481 102.027 22.1284 98.2193C25.4322 98.2958 28.1223 98.2075 31.7746 96.9668C32.6329 99.7921 35.3405 108.182 35.705 108.923C34.08 109.333 32.3659 109.961 30.6548 110.078C29.3068 110.169 28.2139 109.891 26.8602 109.764Z" fill="white"/>
<path d="M31.5857 102.821C30.0111 103.219 27.7739 103.204 26.2056 102.774C26.9168 103.461 27.7309 103.8 28.6992 103.865C29.6676 103.93 30.7941 103.399 31.5857 102.821Z" fill="#D2E0FD"/>
<path d="M42.9097 71.1587C41.7905 68.9369 39.0792 68.7189 37.3983 69.2296C35.7186 69.7392 34.3933 70.9429 33.4573 72.3065C32.6094 73.5411 32.0193 74.9404 30.9419 76.022C33.4965 76.0357 36.0449 75.3749 38.2013 74.1607C38.1037 74.618 37.8437 75.0453 37.4684 75.365C38.3339 75.3531 39.1862 75.0868 39.8836 74.6335C40.4551 76.0188 41.6829 77.5986 42.9039 78.5863C43.7825 76.547 43.8034 73.4622 42.9097 71.1587Z" fill="#02022B"/>
<path d="M45.1756 110.99C43.6758 111.222 42.0851 110.788 40.9082 109.814C42.2216 110.217 43.8615 110.594 45.1756 110.99Z" fill="#9CAEE8"/>
<path d="M30.0225 111.35C31.5322 111.515 33.0986 110.993 34.2319 109.959C32.9372 110.422 31.316 110.88 30.0225 111.35Z" fill="#9CAEE8"/>
<path d="M38.4417 102.459C38.2494 103.475 38.0597 104.492 37.8726 105.51C37.896 105.779 37.9195 106.047 37.9432 106.315C38.9102 106.521 43.0637 107.366 46.8248 107.684C46.689 106.402 46.5574 105.12 46.4298 103.838C46.4292 103.787 46.4287 103.737 46.4281 103.687C43.7657 103.283 41.1034 102.874 38.4417 102.459Z" fill="#9CAEE8"/>
<path d="M33.8769 103.67C33.8769 103.67 31.2394 103.899 31.246 104.345C31.2516 104.729 33.6206 104.62 33.6206 104.62C33.6206 104.62 31.9516 105.062 31.2597 105.238C30.4859 105.436 30.6045 105.92 31.3549 105.852C32.1359 105.782 33.6781 105.514 33.6781 105.514C33.6781 105.514 32.5531 105.969 31.8695 106.216C31.2606 106.435 31.4923 106.811 31.9797 106.74C32.6893 106.636 34.012 106.183 34.012 106.183C34.012 106.183 32.8484 106.732 32.9013 106.935C33.0103 107.353 34.6149 106.757 35.1374 106.375C35.7599 105.92 36.5952 105.472 36.4683 104.594C36.4072 104.177 34.7829 102.511 33.4555 102.312C33.5954 102.765 33.736 103.218 33.8769 103.67Z" fill="#FFBABA"/>
<path d="M41.35 105.554C39.4454 105.581 37.541 105.608 35.6366 105.635C35.6267 104.939 35.6179 104.242 35.6104 103.546C37.7499 103.244 39.8899 102.945 42.0299 102.649C41.8009 103.616 41.5743 104.584 41.35 105.554Z" fill="#FFBABA"/>
<path d="M48.4206 101.88L43.8239 92.8643L44.6882 100.687L37.9482 103.491L48.4206 101.88Z" fill="#9CAEE8"/>
<path d="M36.5073 105.623C38.1214 105.6 39.7355 105.577 41.3497 105.554C41.5739 104.584 41.8006 103.616 42.0295 102.649C40.1182 102.914 38.58 103.123 36.6689 103.392C36.5705 104.08 36.4722 105.163 36.5073 105.623Z" fill="#E06F6F"/>
<path d="M46.4945 86.0371C45.6015 86.914 43.975 90.0584 43.7532 92.8427C43.8232 96.2504 45.5866 101.388 45.5905 101.383C42.6611 101.777 39.732 102.176 36.8032 102.581C36.9244 103.87 37.0498 105.159 37.1793 106.448C37.1796 106.448 45.1233 105.839 49.4982 104.417C49.3766 98.9806 48.4519 90.8358 46.4945 86.0371Z" fill="#D2E0FD"/>
<path d="M55.6059 90.3433C55.5915 90.3433 55.5771 90.3405 55.5634 90.3346C55.5231 90.3175 55.4972 90.278 55.4976 90.2342L55.603 77.0774C55.6144 75.675 56.7589 74.542 58.1584 74.542C58.1653 74.542 58.1723 74.542 58.1793 74.542L70.465 74.6405C71.8741 74.6519 73.0115 75.8076 73.0002 77.2167L72.9495 83.5429C72.9382 84.9451 71.7937 86.0781 70.3941 86.0781C70.3872 86.0781 70.3803 86.0781 70.3732 86.078L60.1111 85.9958L55.6811 90.3125C55.6608 90.3326 55.6336 90.3433 55.6059 90.3433ZM58.1586 74.7585C56.8773 74.7585 55.8299 75.7954 55.8197 77.0791L55.7164 89.9765L59.9923 85.8099C60.0126 85.7899 60.0352 85.7796 60.0686 85.7792L70.3752 85.8618C70.3815 85.862 70.388 85.862 70.3943 85.862C71.6756 85.862 72.723 84.825 72.7332 83.5415L72.7839 77.2153C72.7941 75.9255 71.7531 74.8676 70.4632 74.8572L58.1776 74.7586C58.1713 74.7585 58.1649 74.7585 58.1586 74.7585Z" fill="#9CAEE8"/>
<path d="M69.2209 78.5692H59.2743C59.2145 78.5692 59.166 78.5207 59.166 78.4608C59.166 78.401 59.2145 78.3525 59.2743 78.3525H69.2211C69.2809 78.3525 69.3294 78.401 69.3294 78.4608C69.3294 78.5207 69.2807 78.5692 69.2209 78.5692Z" fill="#9CAEE8"/>
<path d="M69.2212 80.0565H66.8251C66.7653 80.0565 66.7168 80.008 66.7168 79.9482C66.7168 79.8883 66.7653 79.8398 66.8251 79.8398H69.2212C69.281 79.8398 69.3295 79.8883 69.3295 79.9482C69.3295 80.0081 69.281 80.0565 69.2212 80.0565Z" fill="#9CAEE8"/>
<path d="M65.4091 80.0565H59.2743C59.2145 80.0565 59.166 80.008 59.166 79.9482C59.166 79.8883 59.2145 79.8398 59.2743 79.8398H65.4093C65.4691 79.8398 65.5176 79.8883 65.5176 79.9482C65.5174 80.0081 65.4689 80.0565 65.4091 80.0565Z" fill="#9CAEE8"/>
<path d="M63.34 81.5467H59.2743C59.2145 81.5467 59.166 81.4982 59.166 81.4384C59.166 81.3786 59.2145 81.3301 59.2743 81.3301H63.34C63.3999 81.3301 63.4484 81.3786 63.4484 81.4384C63.4484 81.4982 63.3999 81.5467 63.34 81.5467Z" fill="#9CAEE8"/>
<path d="M17.9116 99.0046C17.8839 99.0046 17.8567 98.994 17.8361 98.9739L14.5633 95.7849L6.9742 95.8456C6.96901 95.8456 6.96381 95.8456 6.95862 95.8456C5.90637 95.8456 5.04619 94.994 5.03769 93.94L5.00006 89.2545C4.99156 88.1951 5.84639 87.3265 6.90572 87.3181L16.0052 87.2452C17.0688 87.234 17.933 88.0916 17.9415 89.1509L18.0196 98.8956C18.0199 98.9393 17.994 98.9789 17.9538 98.9961C17.9404 99.0018 17.9261 99.0046 17.9116 99.0046ZM14.6071 95.5679C14.6353 95.5679 14.6625 95.579 14.6826 95.5986L17.8014 98.6378L17.7254 89.1525C17.7218 88.6972 17.5411 88.2706 17.2164 87.9511C16.8953 87.635 16.4713 87.4615 16.0212 87.4615C16.0165 87.4615 16.0118 87.4615 16.0071 87.4617L6.90761 87.5346C5.96777 87.5421 5.20913 88.3129 5.21668 89.2529L5.25431 93.9384C5.26186 94.8735 6.02507 95.6293 6.95878 95.6293C6.96334 95.6293 6.96791 95.6293 6.97263 95.6293L14.6063 95.5681C14.6064 95.5679 14.6068 95.5679 14.6071 95.5679Z" fill="#04CBAB"/>
<path d="M15.1937 90.284H7.82657C7.76675 90.284 7.71826 90.2355 7.71826 90.1757C7.71826 90.1159 7.76675 90.0674 7.82657 90.0674H15.1937C15.2535 90.0674 15.302 90.1159 15.302 90.1757C15.302 90.2357 15.2535 90.284 15.1937 90.284Z" fill="#04CBAB"/>
<path d="M9.60109 91.3865H7.82657C7.76675 91.3865 7.71826 91.3381 7.71826 91.2782C7.71826 91.2184 7.76675 91.1699 7.82657 91.1699H9.60109C9.66092 91.1699 9.7094 91.2184 9.7094 91.2782C9.7094 91.3381 9.66092 91.3865 9.60109 91.3865Z" fill="#04CBAB"/>
<path d="M15.1933 91.3865H10.6493C10.5895 91.3865 10.541 91.3381 10.541 91.2782C10.541 91.2184 10.5895 91.1699 10.6493 91.1699H15.1933C15.2531 91.1699 15.3016 91.2184 15.3016 91.2782C15.3016 91.3381 15.2531 91.3865 15.1933 91.3865Z" fill="#04CBAB"/>
<path d="M15.194 92.4891H12.1825C12.1227 92.4891 12.0742 92.4406 12.0742 92.3808C12.0742 92.3209 12.1227 92.2725 12.1825 92.2725H15.194C15.2538 92.2725 15.3023 92.3209 15.3023 92.3808C15.3023 92.4408 15.2538 92.4891 15.194 92.4891Z" fill="#04CBAB"/>
<path d="M113.994 50.799L113.986 60.4742C113.976 62.2198 115.498 63.6293 117.386 63.6225L136.088 63.5546C137.975 63.5478 139.513 62.1271 139.522 60.3814L139.527 50.7988H113.994V50.799Z" fill="#02022B"/>
<path d="M136.662 13.9328H116.868C114.981 13.9489 113.987 15.5374 113.986 17.2832V59.474C113.985 61.2198 115.514 62.6218 117.401 62.6057L136.102 62.4454C137.989 62.4293 139.542 61.0009 139.543 59.2553V17.0644C139.544 15.3186 138.549 13.9165 136.662 13.9328Z" fill="#04CBAB"/>
<path d="M125.46 60.3665C125.456 61.0334 126.038 61.5718 126.759 61.5692C127.48 61.5666 128.067 61.0238 128.071 60.357C128.074 59.6901 127.493 59.1517 126.772 59.1543C126.051 59.1571 125.464 59.6998 125.46 60.3665Z" fill="#02022B"/>
<path d="M115.266 16.7588V57.2189C115.262 57.8527 115.815 58.3646 116.5 58.3621L137.009 58.2905C137.695 58.288 138.134 57.8527 138.138 57.2189V16.7588H115.266Z" fill="white"/>
<mask id="mask1_1224_173" style="mask-type:luminance" maskUnits="userSpaceOnUse" x="115" y="16" width="24" height="43">
<path d="M115.265 16.7607V57.2208C115.262 57.8547 115.814 58.3665 116.5 58.364L137.009 58.2925C137.694 58.29 138.134 57.8547 138.137 57.2208V16.7607H115.265Z" fill="white"/>
</mask>
<g mask="url(#mask1_1224_173)">
<path d="M122.877 50.7529H115.131V58.4985H122.877V50.7529Z" fill="#9CAEE8"/>
<path d="M130.632 50.7529H122.887V58.4985H130.632V50.7529Z" fill="white"/>
<path d="M138.397 50.7529H130.652V58.4985H138.397V50.7529Z" fill="#9CAEE8"/>
<path d="M119.004 54.873C117.686 54.873 116.617 55.9419 116.617 57.2604H121.391C121.391 55.9418 120.323 54.873 119.004 54.873Z" fill="white"/>
<path d="M119.004 54.5233C119.704 54.5233 120.271 53.9563 120.271 53.2568C120.271 52.5573 119.704 51.9902 119.004 51.9902C118.305 51.9902 117.738 52.5573 117.738 53.2568C117.738 53.9562 118.305 54.5233 119.004 54.5233Z" fill="white"/>
<path d="M128.401 51.5117C127.688 51.5117 127.081 51.9587 126.841 52.5871C126.601 51.9587 125.994 51.5117 125.281 51.5117C124.357 51.5117 123.609 52.2601 123.609 53.1835C123.609 55.4087 126.841 57.7401 126.841 57.7401C126.841 57.7401 130.073 55.4089 130.073 53.1835C130.073 52.2601 129.325 51.5117 128.401 51.5117Z" fill="#04CBAB"/>
<path d="M129.159 54.2426L127.439 54.2323L127.143 53.3446C127.11 53.2439 127.016 53.18 126.916 53.1888C126.818 53.1932 126.734 53.2595 126.707 53.3551L126.204 55.1508L125.879 52.4621C125.866 52.3565 125.779 52.2726 125.672 52.2625C125.564 52.2539 125.467 52.3192 125.435 52.421L124.891 54.1419H123.219C123.093 54.1419 122.991 54.2441 122.991 54.3698C122.991 54.4955 123.093 54.5978 123.219 54.5978H125.059C125.158 54.5978 125.246 54.5337 125.276 54.4384L125.553 53.5621L125.889 56.3404C125.902 56.4477 125.99 56.5318 126.101 56.5402C126.106 56.5405 126.111 56.5407 126.116 56.5407C126.217 56.5407 126.308 56.4722 126.335 56.3741L126.946 54.1938L127.058 54.531C127.089 54.6235 127.175 54.6863 127.273 54.6868L129.157 54.6981C129.282 54.6981 129.384 54.5965 129.385 54.4715C129.386 54.3462 129.284 54.2436 129.159 54.2426Z" fill="white"/>
<path d="M135.371 51.9902H133.68V57.2603H135.371V51.9902Z" fill="white"/>
<path d="M137.16 55.4708V53.7803H131.89V55.4708H137.16Z" fill="white"/>
</g>
<path d="M111.013 29.8137C110.739 27.5502 110.621 25.774 110.625 25.5305C110.643 24.5447 112.291 24.536 112.43 24.7979C112.586 25.0909 113.178 27.1007 113.826 29.3478C112.888 29.5023 111.951 29.6576 111.013 29.8137Z" fill="#FFBABA"/>
<path d="M110.709 26.8478C110.772 27.6122 110.872 28.6478 111.013 29.8133C111.951 29.6572 112.888 29.5019 113.826 29.3474C113.527 28.3097 113.239 27.323 113.001 26.5322C112.269 26.5993 111.47 26.6879 110.709 26.8478Z" fill="#E06F6F"/>
<path d="M112.555 25.2982C113.529 24.8202 112.876 18.6465 112.257 18.6828C111.716 18.7174 112.008 21.5427 111.902 21.5302C111.762 21.5147 111.617 21.2362 111.471 21.2071C111.336 21.1806 111.14 21.4584 111.14 21.4584C111.14 21.4584 110.532 20.9375 110.287 21.4381C110.228 21.5581 110.147 21.8994 110.147 21.8994C110.147 21.8994 109.79 21.7571 109.726 21.838C109.622 21.9701 109.547 22.1292 109.511 22.3192C109.464 22.5649 109.509 24.352 109.854 24.9961C110.089 25.4349 110.568 25.6643 111.047 25.6818" fill="#FFBABA"/>
<path d="M111.708 24.2718C111.706 24.2718 111.705 24.2717 111.703 24.2717C111.651 24.269 111.61 24.2243 111.613 24.1717C111.625 23.9166 111.741 23.6995 111.85 23.5494C111.407 23.4648 110.813 23.2486 110.788 22.85C110.783 22.7718 110.805 22.6557 110.941 22.5458C111.242 22.301 111.957 22.2116 112.47 22.3545C112.521 22.3687 112.551 22.4213 112.536 22.4722C112.522 22.523 112.47 22.553 112.419 22.5386C111.973 22.4144 111.313 22.4899 111.061 22.6943C111.003 22.7412 110.975 22.7897 110.978 22.838C110.995 23.1072 111.538 23.3218 112.04 23.387C112.075 23.3916 112.105 23.4153 112.117 23.4487C112.13 23.4821 112.122 23.5195 112.098 23.5459C111.994 23.6608 111.817 23.8959 111.803 24.1813C111.801 24.232 111.759 24.2718 111.708 24.2718Z" fill="#E06F6F"/>
<path d="M111.045 22.6424C111.005 22.6424 110.969 22.6184 110.955 22.5795C110.798 22.1459 110.97 21.3088 111.333 21.1314C111.484 21.0582 111.718 21.0587 111.982 21.4792C112.01 21.5239 111.997 21.5828 111.952 21.6109C111.907 21.6388 111.848 21.6255 111.82 21.5809C111.716 21.4152 111.562 21.2329 111.417 21.3031C111.171 21.4235 111.001 22.148 111.134 22.5145C111.152 22.564 111.127 22.6188 111.077 22.6368C111.066 22.6406 111.055 22.6424 111.045 22.6424Z" fill="#E06F6F"/>
<path d="M110.828 24.0132C110.671 24.0132 110.524 23.9208 110.405 23.7421C110.003 23.1337 109.936 21.5636 110.406 21.2002C110.553 21.0863 110.807 21.0371 111.18 21.4514C111.215 21.4905 111.212 21.551 111.173 21.5862C111.133 21.6214 111.073 21.6183 111.038 21.5792C110.886 21.4107 110.673 21.2344 110.523 21.3512C110.168 21.6257 110.195 23.078 110.565 23.6366C110.725 23.8788 110.872 23.8344 110.969 23.7804C111.015 23.7546 111.073 23.771 111.099 23.8171C111.125 23.8631 111.108 23.9213 111.062 23.9471C110.983 23.9914 110.905 24.0132 110.828 24.0132Z" fill="#E06F6F"/>
<path d="M110.101 23.8098C109.948 23.8098 109.804 23.7267 109.685 23.565C109.371 23.1365 109.26 22.1433 109.58 21.8523C109.671 21.7698 109.873 21.6754 110.2 21.9694C110.24 22.0046 110.243 22.065 110.208 22.1043C110.173 22.1438 110.112 22.1469 110.073 22.1118C109.96 22.0101 109.804 21.9071 109.709 21.9939C109.499 22.1838 109.539 23.0437 109.839 23.4521C110.026 23.7071 110.203 23.6037 110.261 23.5698C110.306 23.5432 110.365 23.5584 110.391 23.6039C110.418 23.6495 110.403 23.708 110.357 23.7345C110.271 23.7848 110.185 23.8098 110.101 23.8098Z" fill="#E06F6F"/>
<path d="M122.508 23.7214C121.167 23.0684 119.828 22.4106 118.49 21.748C117.289 23.0739 114.145 28.0904 114.795 31.8589C114.438 29.792 113.57 26.927 113.38 26.4985C112.387 26.7396 111.394 26.9822 110.402 27.226C110.373 27.2289 111.194 37.5449 115.459 37.8545C118.729 37.0271 122.459 23.6958 122.508 23.7214Z" fill="#D2E0FD"/>
<path d="M120.724 29.0523C119.963 26.6131 119.218 24.1633 118.491 21.7031C118.472 21.6898 116.012 31.5638 116.309 37.3923C117.922 36.0544 119.528 32.2829 120.724 29.0523Z" fill="#9CAEE8"/>
<path d="M129.176 21.3742C127.272 21.135 124.941 21.0341 122.749 21.21C122.726 21.2118 121.797 21.3843 121.797 21.3843C121.133 31.3153 120.706 40.7102 120.602 50.6904C124.661 50.6124 128.785 50.7716 132.843 50.6904C132.771 49.4219 132.39 43.6109 131.859 36.3487C131.321 28.984 130.596 21.5611 129.176 21.3742Z" fill="#9CAEE8"/>
<path d="M135.009 50.714C134.471 46.4068 133.985 42.0889 133.555 37.7608C133.495 32.5256 133.514 27.2896 133.612 22.0548C131.907 21.7669 130.202 21.4765 128.497 21.1836C127.524 26.4405 126.63 31.7248 125.817 37.0346C126.197 41.6041 126.637 46.1641 127.135 50.714H135.009Z" fill="#D2E0FD"/>
<path d="M126.061 50.714C125.921 46.1548 125.839 41.5946 125.817 37.0346C124.479 31.8231 123.217 26.5728 122.035 21.2852C120.853 21.4459 119.671 21.6078 118.49 21.7711C118.17 27.1544 117.933 32.5455 117.776 37.9425C117.69 42.1972 117.656 46.4547 117.671 50.714H126.061Z" fill="#D2E0FD"/>
<path d="M123.275 13.2292C123.262 13.1957 115.269 20.0502 127.52 20.5017C130.501 20.6073 132.432 19.5304 132.266 15.9985C132.187 14.2779 131.614 11.9737 130.451 8.90723C128.75 9.06947 123.27 13.2164 123.275 13.2292Z" fill="#02022B"/>
<path d="M132.265 15.9966C132.044 18.8646 130.28 19.7711 127.662 19.6708C121.857 19.4494 120.734 17.6436 121.116 15.8623C120.116 17.8341 120.444 20.2485 127.52 20.4998C130.498 20.6053 132.41 19.5239 132.265 15.9966Z" fill="#04CBAB"/>
<path d="M128.105 21.2544C127.272 21.1345 124.304 21.0278 122.749 21.2099C123.149 22.7201 125.18 25.7884 125.182 25.7854C125.179 25.7804 127.933 22.4409 128.105 21.2544Z" fill="#FFBABA"/>
<path d="M120.866 26.6963C120.728 27.3879 121.163 28.062 121.835 28.2004C122.506 28.3387 123.16 27.8921 123.296 27.204C123.433 26.516 123.001 25.8443 122.33 25.7022C121.659 25.5603 121.003 26.0047 120.866 26.6963Z" fill="white"/>
<path d="M121.352 26.7969C121.27 27.2114 121.53 27.6156 121.933 27.6991C122.336 27.7826 122.728 27.5149 122.81 27.1017C122.892 26.6884 122.633 26.285 122.23 26.2003C121.828 26.1154 121.434 26.3823 121.352 26.7969Z" fill="#04CBAB"/>
<path d="M127.125 31.557C128.473 30.9346 129.493 29.6387 129.794 28.1717C130.094 26.7045 129.667 25.1082 128.676 23.9932C128.616 24.048 128.556 24.1029 128.496 24.1576C129.437 25.2151 129.842 26.7298 129.557 28.1219C129.271 29.5139 128.304 30.743 127.025 31.3328C127.058 31.4077 127.091 31.4824 127.125 31.557Z" fill="white"/>
<path d="M126.679 31.3047C126.375 31.4384 126.182 31.6724 126.247 31.8273C126.313 31.9822 126.613 31.9988 126.916 31.8649C127.22 31.731 127.413 31.4975 127.347 31.3429C127.282 31.1885 126.982 31.1712 126.679 31.3047Z" fill="white"/>
<path d="M127.117 31.5582C127.175 31.5014 127.233 31.4445 127.291 31.3877C126.318 30.3586 125.875 28.8385 126.14 27.4322C126.404 26.0257 127.365 24.7825 128.642 24.191C128.608 24.1165 128.575 24.0422 128.542 23.9678C127.195 24.5909 126.181 25.9022 125.902 27.386C125.623 28.8695 126.09 30.4729 127.117 31.5582Z" fill="white"/>
<path d="M127.623 31.4913C127.857 31.7298 127.951 32.019 127.834 32.1379C127.717 32.2568 127.432 32.1603 127.199 31.9218C126.965 31.6833 126.871 31.3932 126.988 31.2743C127.105 31.1554 127.39 31.2529 127.623 31.4913Z" fill="white"/>
<path d="M128.574 24.1424C128.566 24.1424 128.559 24.1416 128.552 24.1399C128.501 24.128 128.469 24.0766 128.48 24.0253C128.494 23.9653 128.522 23.8805 128.556 23.7731C128.723 23.2554 129.069 22.1782 128.606 21.5722C128.348 21.2336 127.861 21.0773 127.157 21.109C127.103 21.1094 127.06 21.0705 127.057 21.0177C127.055 20.9651 127.096 20.9205 127.148 20.9181C127.918 20.884 128.46 21.065 128.758 21.4563C129.281 22.1415 128.914 23.2829 128.738 23.8314C128.705 23.9346 128.679 24.0162 128.666 24.0685C128.656 24.1126 128.617 24.1424 128.574 24.1424Z" fill="#04CBAB"/>
<path d="M122.067 27.107C122.028 27.107 121.992 27.0831 121.978 27.0445C121.737 26.3883 120.593 23.0397 121.751 21.5543C122.193 20.9877 122.913 20.7531 123.89 20.8569C123.942 20.8625 123.98 20.9095 123.974 20.9619C123.969 21.0143 123.922 21.0526 123.869 21.0468C122.963 20.9504 122.3 21.1607 121.902 21.6719C120.806 23.0776 121.922 26.3391 122.157 26.9786C122.175 27.0282 122.15 27.0831 122.101 27.1013C122.089 27.1052 122.078 27.107 122.067 27.107Z" fill="#04CBAB"/>
<path d="M125.474 14.0083C124.58 13.9243 123.685 13.8399 122.791 13.7555C121.045 13.588 121.54 15.9758 122.229 16.0366C123.277 16.1341 124.325 16.2312 125.373 16.3279C125.405 15.5546 125.439 14.7814 125.474 14.0083Z" fill="#671809"/>
<path d="M127.765 16.6129C126.503 16.0954 125.241 15.5743 123.98 15.0498C123.785 17.284 123.605 19.5199 123.439 21.7577C123.297 23.6437 126.793 24.1955 126.995 22.4518C126.986 22.4402 127.756 16.6107 127.765 16.6129Z" fill="#FFBABA"/>
<path d="M123.556 20.2077C124.536 21.0048 126.15 21.1337 127.38 19.4779C127.57 18.0355 127.761 16.6105 127.765 16.6116C127.344 16.4389 126.923 16.2653 126.502 16.0918C125.635 16.5523 124.553 17.141 123.763 17.6168C123.692 18.4803 123.623 19.3439 123.556 20.2077Z" fill="#671809"/>
<path d="M129.598 16.6189C130.43 16.691 131.833 14.2288 129.678 14.0918C129.649 14.9341 129.623 15.7765 129.598 16.6189Z" fill="#E06F6F"/>
<path d="M130.388 12.5654C130.452 11.3614 130.497 9.46895 128.415 8.33658C125.206 6.58483 124.249 8.40326 123.355 9.85233C122.482 11.2118 120.397 19.8912 125.274 20.1256C127.94 20.2509 130.124 17.5872 130.388 12.5654Z" fill="#FFBABA"/>
<path d="M128.092 16.2047C128.011 16.4101 126.914 16.1577 125.585 16.1312C124.256 16.0869 123.147 16.2804 123.078 16.0708C123 15.8748 124.116 15.3058 125.606 15.3501C127.096 15.3854 128.18 16.0131 128.092 16.2047Z" fill="#FFBABA"/>
<path d="M125.138 16.3098C124.904 16.3098 124.87 16.2341 124.856 16.2029C124.751 15.9706 124.907 14.1244 125.038 14.0557L125.082 14.1403L125.177 14.1564C125.106 14.5767 124.937 15.8492 125.024 16.109C125.089 16.1301 125.317 16.113 125.532 16.0698C125.584 16.0588 125.634 16.0929 125.644 16.1445C125.655 16.1962 125.621 16.2465 125.569 16.2569C125.378 16.2955 125.239 16.3098 125.138 16.3098Z" fill="#E06F6F"/>
<path d="M124.139 16.6783C124.47 17.7141 125.951 18.332 126.891 16.6418C125.979 16.5959 125.064 16.588 124.139 16.6783Z" fill="white"/>
<path d="M123.874 15.0434C123.863 15.2657 123.996 15.454 124.169 15.4639C124.343 15.4739 124.491 15.3021 124.501 15.0801C124.511 14.8581 124.379 14.6699 124.206 14.6596C124.033 14.6493 123.884 14.8212 123.874 15.0434Z" fill="#671809"/>
<path d="M126.901 15.2219C126.891 15.4429 127.023 15.6301 127.197 15.64C127.37 15.65 127.519 15.4791 127.529 15.2584C127.539 15.0377 127.406 14.8506 127.233 14.8403C127.06 14.83 126.911 15.0009 126.901 15.2219Z" fill="#671809"/>
<path d="M128.193 14.4866C128.148 14.4866 128.109 14.4551 128.099 14.4095C128.002 13.9136 127.665 13.7117 127.383 13.6879C127.044 13.6593 126.735 13.8552 126.614 14.1748C126.595 14.2241 126.54 14.2492 126.491 14.2304C126.442 14.2117 126.417 14.1566 126.435 14.1073C126.587 13.7071 126.973 13.4616 127.399 13.4976C127.751 13.5271 128.169 13.7725 128.287 14.3729C128.297 14.4247 128.263 14.4748 128.212 14.485C128.205 14.4861 128.199 14.4866 128.193 14.4866Z" fill="#671809"/>
<path d="M123.412 14.3283C123.4 14.3283 123.387 14.3259 123.375 14.321C123.327 14.3009 123.303 14.2451 123.324 14.1963C123.501 13.7675 123.884 13.4897 124.3 13.4883C124.68 13.4861 125.009 13.7161 125.171 14.1007C125.191 14.1494 125.169 14.2053 125.12 14.2258C125.071 14.2463 125.015 14.2232 124.995 14.1748C124.865 13.8643 124.606 13.6793 124.303 13.6793C124.302 13.6793 124.301 13.6793 124.301 13.6793C123.962 13.6803 123.648 13.9118 123.5 14.2692C123.485 14.306 123.449 14.3283 123.412 14.3283Z" fill="#671809"/>
<path d="M129.977 9.86621C130.286 10.691 130.258 11.5441 130.223 12.1948C129.954 17.2182 127.769 19.8814 125.102 19.7541C123.851 19.692 123.056 19.0707 122.583 18.157C123.026 19.2717 123.858 20.0569 125.274 20.1261C127.94 20.2514 130.124 17.5877 130.389 12.5659C130.429 11.8167 130.46 10.7997 129.977 9.86621Z" fill="#E06F6F"/>
<path d="M128.416 8.33658C125.207 6.58483 124.249 8.40326 123.355 9.85233C123.062 10.3257 122.611 11.6634 122.354 13.228C123.713 12.9631 125.019 12.4881 126.194 11.8255C126.108 12.2292 125.879 12.6063 125.548 12.8885C126.311 12.8776 127.063 12.6423 127.678 12.2418C128.126 13.3255 129.029 14.5439 129.98 15.413C130.191 14.5707 130.333 13.6216 130.389 12.5653C130.452 11.3613 130.498 9.46895 128.416 8.33658Z" fill="#E06F6F"/>
<path d="M116.287 42.9673C115.112 39.5404 113.718 36.1408 112.112 32.7809C115.027 32.8484 117.401 32.7705 120.624 31.6758C121.381 34.1687 123.77 41.5719 124.092 42.2256C122.658 42.5869 121.145 43.1415 119.636 43.2442C118.446 43.3247 117.482 43.0797 116.287 42.9673Z" fill="white"/>
<path d="M120.457 36.8413C119.068 37.1917 117.094 37.179 115.71 36.7998C116.338 37.406 117.056 37.7051 117.91 37.7623C118.765 37.8194 119.759 37.3513 120.457 36.8413Z" fill="#D2E0FD"/>
<path d="M130.45 8.90475C129.462 6.94436 127.07 6.75198 125.587 7.20259C124.105 7.65223 122.936 8.71431 122.11 9.91751C121.361 11.0068 120.841 12.2416 119.89 13.1958C122.144 13.2079 124.393 12.6249 126.296 11.5536C126.209 11.9571 125.98 12.3341 125.649 12.6162C126.412 12.6056 127.165 12.3707 127.78 11.9707C128.284 13.1931 129.367 14.587 130.445 15.4585C131.22 13.6591 131.239 10.9372 130.45 8.90475Z" fill="#02022B"/>
<path d="M132.448 44.0512C131.125 44.256 129.722 43.8731 128.683 43.0137C129.842 43.3686 131.289 43.7015 132.448 44.0512Z" fill="#9CAEE8"/>
<path d="M119.079 44.3666C120.411 44.5127 121.793 44.0523 122.793 43.1396C121.65 43.5482 120.22 43.9527 119.079 44.3666Z" fill="#9CAEE8"/>
<path d="M126.507 36.5225C126.337 37.419 126.17 38.3164 126.005 39.2147C126.026 39.4514 126.046 39.688 126.067 39.9246C126.92 40.1068 130.585 40.8522 133.904 41.1323C133.784 40.0019 133.668 38.8707 133.555 37.7389C133.555 37.6944 133.554 37.6501 133.554 37.6057C131.205 37.2496 128.856 36.8886 126.507 36.5225Z" fill="#9CAEE8"/>
<path d="M122.48 37.5913C122.48 37.5911 120.152 37.7929 120.158 38.1872C120.163 38.526 122.254 38.4295 122.254 38.4295C122.254 38.4292 120.781 38.8193 120.17 38.9751C119.488 39.149 119.592 39.5763 120.254 39.5169C120.944 39.4549 122.304 39.2179 122.304 39.2179C122.304 39.2179 121.312 39.6198 120.708 39.8375C120.171 40.0312 120.376 40.3627 120.806 40.2999C121.432 40.2083 122.599 39.8086 122.599 39.8088C122.599 39.8086 121.572 40.2928 121.619 40.4721C121.715 40.8409 123.131 40.3149 123.592 39.9783C124.141 39.5764 124.878 39.1814 124.766 38.4066C124.712 38.0388 123.279 36.569 122.108 36.3926C122.231 36.7924 122.355 37.192 122.48 37.5913Z" fill="#FFBABA"/>
<path d="M129.074 39.253C127.393 39.277 125.713 39.301 124.032 39.3251C124.024 38.7105 124.016 38.0959 124.009 37.4814C125.897 37.2151 127.785 36.9514 129.674 36.6904C129.471 37.5436 129.272 38.3977 129.074 39.253Z" fill="#FFBABA"/>
<path d="M135.312 36.0106L131.256 28.0557L132.019 34.9578L126.072 37.432L135.312 36.0106Z" fill="#9CAEE8"/>
<path d="M124.8 39.3141C126.225 39.2937 127.649 39.2733 129.073 39.253C129.271 38.3977 129.471 37.5436 129.673 36.6904C127.986 36.9235 126.629 37.1081 124.943 37.3454C124.856 37.9531 124.769 38.9081 124.8 39.3141Z" fill="#E06F6F"/>
<path d="M133.613 22.0322C132.825 22.8059 131.39 25.5804 131.194 28.0371C131.256 31.0439 132.812 35.5767 132.815 35.573C130.23 35.9202 127.646 36.2723 125.062 36.6293C125.168 37.7674 125.279 38.9048 125.393 40.0414C125.394 40.0421 132.403 39.5047 136.263 38.2494C136.156 33.453 135.34 26.2664 133.613 22.0322Z" fill="#D2E0FD"/>
<path d="M141.652 25.8339C141.639 25.8339 141.626 25.8314 141.614 25.8263C141.579 25.8111 141.556 25.7763 141.556 25.7376L141.649 14.1287C141.659 12.8913 142.669 11.8916 143.904 11.8916C143.91 11.8916 143.916 11.8916 143.922 11.8916L154.763 11.9786C156.006 11.9886 157.01 13.0083 157 14.2516L156.955 19.8336C156.945 21.0708 155.935 22.0705 154.7 22.0705C154.694 22.0705 154.688 22.0705 154.682 22.0704L145.627 21.9979L141.718 25.8067C141.7 25.8245 141.676 25.8339 141.652 25.8339ZM143.904 12.0826C142.774 12.0826 141.849 12.9976 141.84 14.1302L141.749 25.5103L145.522 21.8338C145.54 21.8162 145.56 21.8072 145.589 21.8067L154.683 21.8797C154.689 21.8798 154.695 21.8798 154.7 21.8798C155.831 21.8798 156.755 20.9648 156.764 19.8323L156.809 14.2504C156.818 13.1123 155.899 12.1789 154.761 12.1697L143.921 12.0827C143.915 12.0826 143.91 12.0826 143.904 12.0826Z" fill="#9CAEE8"/>
<path d="M153.665 15.445H144.889C144.836 15.445 144.793 15.4023 144.793 15.3495C144.793 15.2967 144.836 15.2539 144.889 15.2539H153.665C153.718 15.2539 153.761 15.2967 153.761 15.3495C153.761 15.4023 153.718 15.445 153.665 15.445Z" fill="#9CAEE8"/>
<path d="M153.666 16.7566H151.552C151.499 16.7566 151.456 16.7138 151.456 16.661C151.456 16.6082 151.499 16.5654 151.552 16.5654H153.666C153.719 16.5654 153.761 16.6082 153.761 16.661C153.761 16.7139 153.719 16.7566 153.666 16.7566Z" fill="#9CAEE8"/>
<path d="M150.302 16.7566H144.889C144.836 16.7566 144.793 16.7138 144.793 16.661C144.793 16.6082 144.836 16.5654 144.889 16.5654H150.302C150.355 16.5654 150.397 16.6082 150.397 16.661C150.397 16.7139 150.354 16.7566 150.302 16.7566Z" fill="#9CAEE8"/>
<path d="M148.476 18.071H144.889C144.836 18.071 144.793 18.0282 144.793 17.9754C144.793 17.9227 144.836 17.8799 144.889 17.8799H148.476C148.529 17.8799 148.572 17.9227 148.572 17.9754C148.572 18.0282 148.529 18.071 148.476 18.071Z" fill="#9CAEE8"/>
<path d="M108.393 33.4736C108.368 33.4736 108.344 33.4643 108.326 33.4466L105.438 30.6327L98.7419 30.6863C98.7374 30.6863 98.7328 30.6863 98.7282 30.6863C97.7997 30.6863 97.0408 29.9349 97.0333 29.0049L97.0001 24.8706C96.9926 23.9359 97.7468 23.1694 98.6815 23.1621L106.71 23.0978C107.649 23.0879 108.411 23.8445 108.419 24.7792L108.488 33.3775C108.488 33.416 108.465 33.451 108.43 33.4661C108.418 33.4711 108.405 33.4736 108.393 33.4736ZM105.477 30.4413C105.502 30.4413 105.526 30.451 105.543 30.4684L108.295 33.15L108.228 24.7806C108.225 24.3789 108.066 24.0024 107.779 23.7206C107.496 23.4417 107.122 23.2886 106.725 23.2886C106.72 23.2886 106.716 23.2886 106.712 23.2887L98.6832 23.3531C97.8539 23.3597 97.1845 24.0398 97.1912 24.8692L97.2244 29.0035C97.2311 29.8286 97.9045 30.4955 98.7283 30.4955C98.7324 30.4955 98.7364 30.4955 98.7406 30.4955L105.476 30.4415C105.476 30.4413 105.477 30.4413 105.477 30.4413Z" fill="#04CBAB"/>
<path d="M105.994 25.7771H99.494C99.4412 25.7771 99.3984 25.7343 99.3984 25.6815C99.3984 25.6287 99.4412 25.5859 99.494 25.5859H105.994C106.047 25.5859 106.09 25.6287 106.09 25.6815C106.09 25.7344 106.047 25.7771 105.994 25.7771Z" fill="#04CBAB"/>
<path d="M101.06 26.7507H99.494C99.4412 26.7507 99.3984 26.7079 99.3984 26.6551C99.3984 26.6024 99.4412 26.5596 99.494 26.5596H101.06C101.113 26.5596 101.155 26.6024 101.155 26.6551C101.155 26.7079 101.113 26.7507 101.06 26.7507Z" fill="#04CBAB"/>
<path d="M105.994 26.7507H101.985C101.932 26.7507 101.889 26.7079 101.889 26.6551C101.889 26.6024 101.932 26.5596 101.985 26.5596H105.994C106.047 26.5596 106.09 26.6024 106.09 26.6551C106.09 26.7079 106.047 26.7507 105.994 26.7507Z" fill="#04CBAB"/>
<path d="M105.995 27.7234H103.338C103.285 27.7234 103.242 27.6806 103.242 27.6278C103.242 27.575 103.285 27.5322 103.338 27.5322H105.995C106.048 27.5322 106.09 27.575 106.09 27.6278C106.09 27.6807 106.048 27.7234 105.995 27.7234Z" fill="#04CBAB"/>
<path d="M194.908 120.466L194.898 132.94C194.886 135.19 196.848 137.007 199.281 136.998L223.393 136.911C225.826 136.902 227.808 135.07 227.82 132.82L227.827 120.466H194.908V120.466Z" fill="#02022B"/>
<path d="M224.133 72.9367H198.614C196.181 72.9575 194.9 75.0055 194.899 77.2562V131.65C194.898 133.9 196.869 135.708 199.302 135.687L223.411 135.481C225.844 135.46 227.847 133.618 227.848 131.368V76.9741C227.849 74.7234 226.566 72.9158 224.133 72.9367Z" fill="#04CBAB"/>
<path d="M209.69 132.801C209.686 133.661 210.435 134.355 211.365 134.352C212.294 134.348 213.052 133.649 213.056 132.789C213.061 131.929 212.311 131.235 211.382 131.238C210.452 131.242 209.695 131.942 209.69 132.801Z" fill="#02022B"/>
<path d="M196.548 76.5801V128.742C196.544 129.559 197.256 130.219 198.14 130.216L224.581 130.124C225.464 130.121 226.032 129.559 226.036 128.742V76.5801H196.548Z" fill="white"/>
<mask id="mask2_1224_173" style="mask-type:luminance" maskUnits="userSpaceOnUse" x="196" y="76" width="31" height="55">
<path d="M196.547 76.583V128.745C196.542 129.562 197.255 130.222 198.138 130.219L224.579 130.127C225.463 130.124 226.03 129.562 226.035 128.745V76.583H196.547Z" fill="white"/>
</mask>
<g mask="url(#mask2_1224_173)">
<path d="M206.361 120.408H196.375V130.394H206.361V120.408Z" fill="#9CAEE8"/>
<path d="M216.359 120.408H206.373V130.394H216.359V120.408Z" fill="white"/>
<path d="M226.371 120.408H216.385V130.394H226.371V120.408Z" fill="#9CAEE8"/>
<path d="M201.367 125.72C199.668 125.72 198.29 127.098 198.29 128.798H204.445C204.445 127.098 203.067 125.72 201.367 125.72Z" fill="white"/>
<path d="M201.368 125.269C202.27 125.269 203.001 124.538 203.001 123.636C203.001 122.734 202.27 122.003 201.368 122.003C200.466 122.003 199.735 122.734 199.735 123.636C199.735 124.537 200.466 125.269 201.368 125.269Z" fill="white"/>
<path d="M213.483 121.386C212.564 121.386 211.782 121.962 211.472 122.772C211.162 121.962 210.379 121.386 209.46 121.386C208.27 121.386 207.305 122.351 207.305 123.541C207.305 126.41 211.472 129.416 211.472 129.416C211.472 129.416 215.638 126.41 215.638 123.541C215.638 122.351 214.674 121.386 213.483 121.386Z" fill="#04CBAB"/>
<path d="M214.459 124.906L212.242 124.893L211.861 123.749C211.818 123.619 211.697 123.536 211.569 123.548C211.441 123.553 211.333 123.639 211.299 123.762L210.651 126.077L210.231 122.611C210.214 122.475 210.103 122.367 209.964 122.354C209.826 122.342 209.7 122.427 209.659 122.558L208.958 124.776H206.802C206.64 124.776 206.508 124.908 206.508 125.07C206.508 125.232 206.64 125.364 206.802 125.364H209.174C209.302 125.364 209.415 125.282 209.454 125.159L209.811 124.029L210.245 127.611C210.261 127.749 210.375 127.858 210.517 127.869C210.524 127.869 210.53 127.869 210.537 127.869C210.668 127.869 210.784 127.781 210.819 127.654L211.607 124.843L211.751 125.278C211.791 125.397 211.903 125.478 212.029 125.479L214.458 125.494C214.619 125.494 214.751 125.363 214.752 125.201C214.752 125.04 214.621 124.908 214.459 124.906Z" fill="white"/>
<path d="M222.467 122.003H220.288V128.797H222.467V122.003Z" fill="white"/>
<path d="M224.775 126.49V124.311H217.981V126.49H224.775Z" fill="white"/>
</g>
<path d="M191.066 93.411C190.711 90.4929 190.56 88.2029 190.565 87.889C190.589 86.6181 192.713 86.6068 192.892 86.9445C193.093 87.3222 193.857 89.9133 194.692 92.8104C193.483 93.0095 192.274 93.2097 191.066 93.411Z" fill="#FFBABA"/>
<path d="M190.674 89.5885C190.755 90.574 190.884 91.9091 191.066 93.4117C192.275 93.2104 193.483 93.0102 194.692 92.8111C194.307 91.4732 193.936 90.2012 193.629 89.1816C192.685 89.2681 191.654 89.3824 190.674 89.5885Z" fill="#E06F6F"/>
<path d="M193.053 87.5895C194.309 86.9733 193.467 79.014 192.669 79.0608C191.971 79.1053 192.348 82.7479 192.211 82.7318C192.03 82.7117 191.844 82.3526 191.655 82.3152C191.482 82.281 191.229 82.6392 191.229 82.6392C191.229 82.6392 190.446 81.9676 190.129 82.613C190.053 82.7677 189.949 83.2078 189.949 83.2078C189.949 83.2078 189.488 83.0242 189.406 83.1286C189.272 83.2989 189.175 83.504 189.129 83.7489C189.068 84.0657 189.126 86.3696 189.572 87.2C189.874 87.7657 190.491 88.0616 191.108 88.0842" fill="#FFBABA"/>
<path d="M191.962 86.267C191.96 86.267 191.958 86.2669 191.956 86.2669C191.888 86.2635 191.835 86.2058 191.839 86.1379C191.855 85.8091 192.004 85.5292 192.144 85.3356C191.573 85.2266 190.808 84.9479 190.775 84.434C190.769 84.3331 190.798 84.1834 190.972 84.0418C191.361 83.7262 192.283 83.6109 192.944 83.7952C193.01 83.8134 193.048 83.8813 193.03 83.9469C193.011 84.0124 192.944 84.0511 192.878 84.0325C192.303 83.8724 191.452 83.9698 191.127 84.2332C191.053 84.2937 191.017 84.3562 191.021 84.4186C191.043 84.7656 191.743 85.0423 192.39 85.1263C192.435 85.1322 192.474 85.1628 192.49 85.2058C192.505 85.249 192.496 85.2971 192.465 85.3312C192.331 85.4793 192.102 85.7824 192.084 86.1503C192.081 86.2156 192.027 86.267 191.962 86.267Z" fill="#E06F6F"/>
<path d="M191.106 84.1672C191.056 84.1672 191.009 84.1362 190.991 84.086C190.788 83.5271 191.01 82.4478 191.479 82.2191C191.672 82.1247 191.975 82.1255 192.315 82.6675C192.351 82.7252 192.334 82.8011 192.276 82.8373C192.219 82.8733 192.143 82.8561 192.107 82.7986C191.973 82.585 191.774 82.35 191.586 82.4405C191.269 82.5957 191.051 83.5298 191.222 84.0022C191.245 84.0662 191.212 84.1367 191.148 84.16C191.134 84.1648 191.12 84.1672 191.106 84.1672Z" fill="#E06F6F"/>
<path d="M190.828 85.9349C190.625 85.9349 190.435 85.8159 190.283 85.5854C189.764 84.801 189.678 82.7768 190.283 82.3084C190.473 82.1615 190.801 82.0981 191.281 82.6321C191.327 82.6826 191.323 82.7605 191.272 82.806C191.221 82.8513 191.144 82.8474 191.098 82.7969C190.903 82.5797 190.628 82.3524 190.434 82.503C189.977 82.8569 190.012 84.7292 190.488 85.4495C190.695 85.7616 190.884 85.7045 191.009 85.6348C191.068 85.6015 191.144 85.6226 191.177 85.6821C191.21 85.7414 191.189 85.8164 191.13 85.8497C191.028 85.9068 190.926 85.9349 190.828 85.9349Z" fill="#E06F6F"/>
<path d="M189.89 85.6714C189.693 85.6714 189.507 85.5643 189.354 85.3558C188.949 84.8034 188.805 83.5229 189.219 83.1478C189.336 83.0414 189.596 82.9196 190.019 83.2987C190.069 83.344 190.074 83.4219 190.028 83.4726C189.983 83.5235 189.905 83.5276 189.854 83.4823C189.708 83.3512 189.507 83.2183 189.384 83.3302C189.115 83.575 189.166 84.6837 189.552 85.2102C189.794 85.539 190.021 85.4056 190.096 85.3619C190.155 85.3277 190.23 85.3472 190.265 85.406C190.299 85.4647 190.279 85.5401 190.221 85.5743C190.11 85.6391 189.998 85.6714 189.89 85.6714Z" fill="#E06F6F"/>
<path d="M205.886 85.5567C204.157 84.7149 202.43 83.8669 200.705 83.0127C199.157 84.722 195.104 91.1894 195.941 96.0479C195.482 93.3832 194.363 89.6896 194.117 89.1371C192.837 89.448 191.558 89.7607 190.278 90.075C190.241 90.0787 191.299 103.378 196.798 103.778C201.013 102.711 205.823 85.5238 205.886 85.5567Z" fill="#D2E0FD"/>
<path d="M203.585 92.4298C202.604 89.2851 201.644 86.1268 200.706 82.9551C200.682 82.9379 197.511 95.6678 197.893 103.182C199.972 101.457 202.043 96.5949 203.585 92.4298Z" fill="#9CAEE8"/>
<path d="M214.483 82.5314C212.028 82.223 209.023 82.093 206.197 82.3197C206.167 82.322 204.969 82.5444 204.969 82.5444C204.113 95.3477 203.563 107.46 203.429 120.327C208.661 120.226 213.978 120.431 219.21 120.327C219.117 118.691 218.626 111.199 217.941 101.837C217.247 92.3422 216.313 82.7724 214.483 82.5314Z" fill="#9CAEE8"/>
<path d="M222.002 120.358C221.308 114.805 220.682 109.238 220.128 103.658C220.05 96.9085 220.075 90.1582 220.201 83.4093C218.003 83.0381 215.804 82.6638 213.606 82.2861C212.352 89.0635 211.2 95.8761 210.152 102.722C210.641 108.613 211.208 114.492 211.85 120.358H222.002Z" fill="#D2E0FD"/>
<path d="M210.465 120.358C210.285 114.481 210.179 108.602 210.152 102.723C208.426 96.0038 206.8 89.2349 205.275 82.418C203.752 82.6252 202.228 82.834 200.705 83.0444C200.293 89.9847 199.986 96.9351 199.785 103.893C199.674 109.378 199.629 114.867 199.649 120.358H210.465Z" fill="#D2E0FD"/>
<path d="M206.873 72.029C206.856 71.9858 196.552 80.8228 212.347 81.405C216.189 81.5411 218.679 80.1527 218.465 75.5993C218.363 73.3811 217.624 70.4104 216.124 66.457C213.932 66.6662 206.867 72.0125 206.873 72.029Z" fill="#02022B"/>
<path d="M218.464 75.599C218.178 79.2965 215.904 80.4651 212.529 80.3358C205.046 80.0504 203.597 77.7223 204.089 75.4258C202.801 77.9678 203.224 81.0806 212.346 81.4046C216.185 81.5405 218.65 80.1464 218.464 75.599Z" fill="#04CBAB"/>
<path d="M213.101 82.3766C212.027 82.222 208.202 82.0845 206.196 82.3192C206.712 84.2662 209.33 88.222 209.333 88.218C209.329 88.2116 212.88 83.9063 213.101 82.3766Z" fill="#FFBABA"/>
<path d="M203.768 89.3919C203.591 90.2835 204.152 91.1526 205.017 91.331C205.883 91.5093 206.726 90.9336 206.902 90.0464C207.077 89.1594 206.521 88.2934 205.656 88.1102C204.791 87.9273 203.945 88.5002 203.768 89.3919Z" fill="white"/>
<path d="M204.396 89.5228C204.29 90.0572 204.625 90.5784 205.145 90.686C205.664 90.7936 206.17 90.4485 206.276 89.9158C206.381 89.383 206.047 88.8629 205.528 88.7537C205.009 88.6443 204.501 88.9883 204.396 89.5228Z" fill="#04CBAB"/>
<path d="M211.837 95.6607C213.575 94.8583 214.89 93.1876 215.278 91.2963C215.665 89.4047 215.115 87.3467 213.837 85.9092C213.759 85.9799 213.682 86.0507 213.605 86.1212C214.818 87.4846 215.34 89.4373 214.973 91.232C214.604 93.0266 213.357 94.6113 211.708 95.3717C211.751 95.4682 211.794 95.5646 211.837 95.6607Z" fill="white"/>
<path d="M211.262 95.3346C210.87 95.5069 210.621 95.8087 210.706 96.0083C210.791 96.208 211.177 96.2295 211.568 96.0569C211.96 95.8842 212.209 95.5832 212.125 95.3839C212.04 95.1847 211.654 95.1625 211.262 95.3346Z" fill="white"/>
<path d="M211.827 95.6607C211.902 95.5875 211.977 95.5143 212.051 95.441C210.797 94.1142 210.226 92.1545 210.567 90.3415C210.907 88.5281 212.147 86.9253 213.793 86.1628C213.75 86.0668 213.707 85.971 213.664 85.875C211.928 86.6784 210.62 88.3689 210.261 90.2818C209.902 92.1944 210.504 94.2616 211.827 95.6607Z" fill="white"/>
<path d="M212.481 95.5746C212.782 95.882 212.904 96.2549 212.753 96.4082C212.602 96.5615 212.235 96.437 211.933 96.1295C211.632 95.8221 211.51 95.4481 211.662 95.2948C211.813 95.1415 212.18 95.2673 212.481 95.5746Z" fill="white"/>
<path d="M213.705 86.1006C213.696 86.1006 213.687 86.0995 213.677 86.0974C213.611 86.082 213.57 86.0157 213.585 85.9496C213.603 85.8722 213.638 85.7628 213.683 85.6244C213.897 84.957 214.344 83.5682 213.747 82.787C213.414 82.3504 212.786 82.149 211.879 82.1898C211.81 82.1903 211.753 82.1402 211.75 82.0721C211.747 82.0043 211.8 81.9468 211.868 81.9437C212.86 81.8997 213.558 82.133 213.943 82.6375C214.618 83.5209 214.144 84.9924 213.917 85.6996C213.874 85.8327 213.84 85.9378 213.825 86.0053C213.812 86.0621 213.761 86.1006 213.705 86.1006Z" fill="#04CBAB"/>
<path d="M205.318 89.9226C205.267 89.9226 205.22 89.8918 205.202 89.842C204.891 88.996 203.416 84.6789 204.91 82.764C205.479 82.0335 206.407 81.731 207.667 81.8648C207.734 81.8719 207.783 81.9327 207.776 82.0002C207.769 82.0677 207.709 82.1171 207.641 82.1096C206.472 81.9853 205.618 82.2564 205.104 82.9155C203.691 84.7278 205.13 88.9326 205.433 89.7571C205.457 89.821 205.424 89.8918 205.36 89.9152C205.346 89.9202 205.332 89.9226 205.318 89.9226Z" fill="#04CBAB"/>
<path d="M209.709 73.034C208.556 72.9257 207.403 72.817 206.25 72.7081C203.999 72.4921 204.637 75.5706 205.526 75.649C206.877 75.7747 208.228 75.8999 209.579 76.0245C209.621 75.0276 209.664 74.0308 209.709 73.034Z" fill="#671809"/>
<path d="M212.664 76.3922C211.036 75.7249 209.409 75.0532 207.784 74.377C207.532 77.2573 207.3 80.14 207.086 83.025C206.902 85.4564 211.409 86.1679 211.67 83.9199C211.659 83.9048 212.651 76.3893 212.664 76.3922Z" fill="#FFBABA"/>
<path d="M207.237 81.0281C208.5 82.0556 210.58 82.2218 212.166 80.0872C212.412 78.2276 212.657 76.3904 212.663 76.3918C212.12 76.1692 211.578 75.9454 211.035 75.7217C209.916 76.3153 208.522 77.0743 207.504 77.6878C207.412 78.801 207.323 79.9143 207.237 81.0281Z" fill="#671809"/>
<path d="M215.027 76.4006C216.1 76.4936 217.908 73.3192 215.129 73.1426C215.092 74.2285 215.058 75.3145 215.027 76.4006Z" fill="#E06F6F"/>
<path d="M216.046 71.1744C216.128 69.6221 216.186 67.1823 213.502 65.7224C209.365 63.464 208.13 65.8083 206.978 67.6765C205.853 69.4292 203.164 80.619 209.452 80.9211C212.889 81.0826 215.705 77.6485 216.046 71.1744Z" fill="#FFBABA"/>
<path d="M213.084 75.8656C212.98 76.1305 211.566 75.8051 209.852 75.7709C208.138 75.7138 206.709 75.9632 206.619 75.693C206.519 75.4403 207.958 74.7068 209.879 74.7639C211.8 74.8094 213.197 75.6187 213.084 75.8656Z" fill="#FFBABA"/>
<path d="M209.276 76.0009C208.975 76.0009 208.93 75.9033 208.912 75.863C208.776 75.5635 208.978 73.1834 209.147 73.0947L209.204 73.2038L209.326 73.2246C209.235 73.7665 209.017 75.407 209.129 75.7419C209.213 75.7691 209.507 75.7471 209.784 75.6914C209.85 75.6773 209.915 75.7211 209.929 75.7878C209.942 75.8544 209.899 75.9192 209.832 75.9326C209.586 75.9824 209.406 76.0009 209.276 76.0009Z" fill="#E06F6F"/>
<path d="M207.988 76.4778C208.415 77.8132 210.324 78.6098 211.536 76.4307C210.361 76.3716 209.181 76.3614 207.988 76.4778Z" fill="white"/>
<path d="M207.646 74.3713C207.633 74.6579 207.803 74.9007 208.027 74.9134C208.25 74.9263 208.442 74.7048 208.455 74.4186C208.468 74.1324 208.298 73.8898 208.074 73.8765C207.851 73.8633 207.659 74.0848 207.646 74.3713Z" fill="#671809"/>
<path d="M211.549 74.5999C211.535 74.8848 211.706 75.1262 211.93 75.139C212.153 75.1519 212.345 74.9316 212.358 74.647C212.371 74.3625 212.2 74.1212 211.977 74.108C211.753 74.0947 211.561 74.315 211.549 74.5999Z" fill="#671809"/>
<path d="M213.214 73.6526C213.156 73.6526 213.105 73.6119 213.093 73.5532C212.968 72.9139 212.534 72.6535 212.169 72.6229C211.732 72.586 211.334 72.8385 211.178 73.2506C211.154 73.3141 211.083 73.3465 211.02 73.3222C210.956 73.2982 210.924 73.2271 210.948 73.1635C211.143 72.6476 211.641 72.3312 212.19 72.3775C212.644 72.4155 213.183 72.7319 213.335 73.5059C213.348 73.5727 213.305 73.6374 213.238 73.6505C213.23 73.6519 213.222 73.6526 213.214 73.6526Z" fill="#671809"/>
<path d="M207.05 73.4482C207.034 73.4482 207.018 73.4451 207.003 73.4389C206.94 73.4129 206.91 73.3409 206.936 73.278C207.165 72.7252 207.659 72.367 208.195 72.3653C208.684 72.3624 209.109 72.6589 209.318 73.1548C209.344 73.2175 209.315 73.2897 209.252 73.316C209.189 73.3425 209.117 73.3128 209.091 73.2503C208.923 72.85 208.589 72.6115 208.199 72.6115C208.198 72.6115 208.197 72.6115 208.196 72.6115C207.759 72.6127 207.354 72.9113 207.164 73.3721C207.144 73.4195 207.098 73.4482 207.05 73.4482Z" fill="#671809"/>
<path d="M215.515 67.6943C215.913 68.7577 215.876 69.8575 215.831 70.6965C215.485 77.1728 212.667 80.6061 209.23 80.4421C207.616 80.3621 206.592 79.561 205.982 78.383C206.553 79.8201 207.625 80.8325 209.451 80.9217C212.889 81.0832 215.704 77.6491 216.046 71.1748C216.097 70.209 216.138 68.8978 215.515 67.6943Z" fill="#E06F6F"/>
<path d="M213.502 65.7224C209.365 63.464 208.13 65.8083 206.978 67.6765C206.6 68.2868 206.018 70.0114 205.688 72.0286C207.439 71.6871 209.123 71.0746 210.637 70.2204C210.526 70.7408 210.231 71.227 209.804 71.5909C210.789 71.5768 211.758 71.2734 212.551 70.7571C213.129 72.1543 214.293 73.725 215.519 74.8455C215.791 73.7596 215.973 72.5359 216.046 71.1742C216.127 69.6219 216.186 67.1823 213.502 65.7224Z" fill="#E06F6F"/>
<path d="M197.867 110.372C196.351 105.954 194.554 101.571 192.484 97.2392C196.242 97.3263 199.302 97.2258 203.457 95.8145C204.433 99.0284 207.513 108.573 207.928 109.416C206.079 109.881 204.13 110.596 202.183 110.729C200.65 110.833 199.406 110.517 197.867 110.372Z" fill="white"/>
<path d="M203.242 102.474C201.451 102.926 198.906 102.91 197.122 102.421C197.931 103.202 198.857 103.588 199.958 103.662C201.06 103.735 202.341 103.132 203.242 102.474Z" fill="#D2E0FD"/>
<path d="M216.124 66.4557C214.851 63.9283 211.766 63.6802 209.854 64.2612C207.943 64.8409 206.436 66.2101 205.371 67.7613C204.407 69.1657 203.735 70.7576 202.51 71.9879C205.416 72.0034 208.315 71.2518 210.768 69.8706C210.657 70.3908 210.361 70.8768 209.934 71.2405C210.919 71.2269 211.888 70.9241 212.681 70.4083C213.332 71.9843 214.728 73.7814 216.117 74.9049C217.117 72.5851 217.14 69.076 216.124 66.4557Z" fill="#02022B"/>
<path d="M218.702 111.766C216.995 112.03 215.186 111.537 213.847 110.429C215.341 110.886 217.207 111.316 218.702 111.766Z" fill="#9CAEE8"/>
<path d="M201.464 112.175C203.181 112.363 204.963 111.769 206.252 110.593C204.78 111.119 202.935 111.641 201.464 112.175Z" fill="#9CAEE8"/>
<path d="M211.041 102.06C210.822 103.215 210.606 104.372 210.394 105.531C210.42 105.836 210.447 106.141 210.474 106.446C211.574 106.681 216.299 107.642 220.577 108.003C220.423 106.545 220.273 105.087 220.128 103.628C220.127 103.57 220.127 103.513 220.126 103.456C217.097 102.997 214.069 102.532 211.041 102.06Z" fill="#9CAEE8"/>
<path d="M205.848 103.438C205.848 103.438 202.848 103.698 202.856 104.206C202.862 104.643 205.557 104.519 205.557 104.519C205.557 104.518 203.658 105.021 202.871 105.222C201.991 105.446 202.126 105.997 202.98 105.92C203.868 105.841 205.622 105.535 205.622 105.535C205.622 105.535 204.343 106.053 203.565 106.334C202.872 106.584 203.136 107.011 203.69 106.93C204.497 106.812 206.002 106.297 206.002 106.297C206.002 106.297 204.678 106.921 204.739 107.152C204.863 107.627 206.688 106.949 207.282 106.515C207.99 105.997 208.941 105.488 208.796 104.489C208.727 104.015 206.879 102.12 205.369 101.893C205.528 102.408 205.688 102.923 205.848 103.438Z" fill="#FFBABA"/>
<path d="M214.349 105.581C212.183 105.612 210.017 105.643 207.85 105.674C207.839 104.882 207.829 104.089 207.82 103.297C210.254 102.954 212.688 102.614 215.123 102.277C214.862 103.377 214.605 104.478 214.349 105.581Z" fill="#FFBABA"/>
<path d="M222.393 101.402L217.164 91.1465L218.147 100.045L210.48 103.235L222.393 101.402Z" fill="#9CAEE8"/>
<path d="M208.841 105.66C210.677 105.634 212.513 105.607 214.349 105.581C214.604 104.478 214.862 103.377 215.123 102.277C212.948 102.578 211.199 102.816 209.025 103.122C208.913 103.905 208.801 105.136 208.841 105.66Z" fill="#E06F6F"/>
<path d="M220.202 83.3799C219.186 84.3774 217.335 87.9544 217.083 91.1216C217.163 94.998 219.169 100.842 219.173 100.837C215.841 101.285 212.509 101.739 209.177 102.199C209.315 103.666 209.458 105.132 209.605 106.598C209.605 106.599 218.642 105.906 223.618 104.288C223.48 98.1038 222.428 88.8387 220.202 83.3799Z" fill="#D2E0FD"/>
<path fill-rule="evenodd" clip-rule="evenodd" d="M242.005 51.2003C245.385 52.5585 254.52 54.4596 264.016 51.2003C267.436 34.1814 272.37 0.143347 264.749 0.143347C264.749 0.143347 248.717 -1.11696 239.045 3.83634C236.817 6.73798 239.374 35.2269 239.748 39.9162C240.264 46.3878 241.624 50.4481 242.005 51.2003ZM262.423 49.5092C254.264 52.519 246.416 50.7635 243.512 49.5092C243.185 48.8143 242.016 45.0645 241.573 39.088C241.252 34.7571 238.421 8.09879 240.334 5.41904C248.644 0.84456 263.052 2.3567 263.052 2.3567C269.292 2.3567 265.36 33.7916 262.423 49.5092Z" fill="#04CBAB"/>
<path d="M239.045 3.83594C239.045 3.83594 235 5.59448 235 7.49962C235 9.40472 235.961 47.6653 237.931 49.2363C239.901 50.8072 241.468 51.1999 242.005 51.1999C241.624 50.4477 240.264 46.3874 239.748 39.9158C239.374 35.2265 236.817 6.73757 239.045 3.83594Z" fill="#04CBAB"/>
<path d="M243.512 49.5092C246.416 50.7635 254.264 52.519 262.423 49.5092C265.36 33.7916 269.292 2.35671 263.052 2.35671C263.052 2.35671 248.644 0.844571 240.334 5.41905C238.421 8.0988 241.252 34.7571 241.573 39.088C242.016 45.0645 243.185 48.8143 243.512 49.5092Z" fill="#04CBAB"/>
<path d="M239.045 3.83634C239.045 3.83634 235 5.59489 235 7.50003C235 9.40513 235.961 47.6658 237.931 49.2367C239.901 50.8076 241.468 51.2003 242.005 51.2003M239.045 3.83634C248.717 -1.11696 264.749 0.143347 264.749 0.143347C272.37 0.143347 267.436 34.1814 264.016 51.2003C254.52 54.4596 245.385 52.5585 242.005 51.2003M239.045 3.83634C236.817 6.73798 239.374 35.2269 239.748 39.9162C240.264 46.3878 241.624 50.4481 242.005 51.2003M243.512 49.5092C246.416 50.7635 254.264 52.519 262.423 49.5092C265.36 33.7916 269.292 2.3567 263.052 2.3567C263.052 2.3567 248.644 0.84456 240.334 5.41904C238.421 8.09879 241.252 34.7571 241.573 39.088C242.016 45.0645 243.185 48.8143 243.512 49.5092Z" stroke="#545454" stroke-width="1.03366"/>
<path fill-rule="evenodd" clip-rule="evenodd" d="M242.005 51.2003C245.385 52.5585 254.52 54.4596 264.016 51.2003C267.436 34.1814 272.37 0.143347 264.749 0.143347C264.749 0.143347 248.717 -1.11696 239.045 3.83634C236.817 6.73798 239.374 35.2269 239.748 39.9162C240.264 46.3878 241.624 50.4481 242.005 51.2003Z" fill="#04CBAB" stroke="#545454" stroke-width="1.03366"/>
<path fill-rule="evenodd" clip-rule="evenodd" d="M262.01 48.1356C254.566 50.9838 247.405 49.3223 244.756 48.1356C244.457 47.4782 243.391 43.9298 242.986 38.2746C242.693 34.1768 240.11 8.95196 241.856 6.41632C249.438 2.0878 262.584 3.51864 262.584 3.51864C268.278 3.51864 264.69 33.2633 262.01 48.1356Z" fill="#FFF0E0"/>
<path d="M244.756 48.1356C247.405 49.3223 254.566 50.9838 262.01 48.1356C264.69 33.2633 268.278 3.51864 262.584 3.51864C262.584 3.51864 249.438 2.0878 241.856 6.41632C240.11 8.95196 242.693 34.1768 242.986 38.2746C243.391 43.9298 244.457 47.4782 244.756 48.1356Z" fill="#FFF0E0"/>
<path d="M242.986 38.2746C243.391 43.9298 244.457 47.4782 244.756 48.1356C247.405 49.3223 254.566 50.9838 262.01 48.1356C264.69 33.2633 268.278 3.51864 262.584 3.51864C262.584 3.51864 249.438 2.0878 241.856 6.41632C240.11 8.95196 242.693 34.1768 242.986 38.2746ZM242.986 38.2746L245.038 36.9259C245.038 36.9259 246.305 34.3263 246.323 34.2894L247.659 31.5188C247.728 31.3759 247.932 31.4059 247.96 31.563L248.82 36.3893C248.852 36.5691 249.099 36.5714 249.135 36.3923L249.935 32.3261C249.967 32.1655 250.179 32.1441 250.24 32.2955L251.479 35.3787C251.536 35.5209 251.732 35.5133 251.779 35.3675L252.802 32.1862C252.848 32.0442 253.037 32.032 253.099 32.167L253.963 34.0399C254.02 34.165 254.191 34.1663 254.251 34.0425L255.57 31.3063C255.622 31.1978 255.765 31.1819 255.839 31.2764L257.545 33.4763C257.606 33.5553 257.721 33.5596 257.787 33.4855L259.784 31.2707C259.865 31.1804 260.01 31.2104 260.051 31.3262L261.099 34.2387C261.122 34.3036 261.182 34.347 261.249 34.347H264.32" stroke="#545454" stroke-width="1.03366"/>
<path fill-rule="evenodd" clip-rule="evenodd" d="M253.436 28.1635C258.017 28.1635 261.73 23.8928 261.73 18.6247C261.73 13.3566 258.017 9.08594 253.436 9.08594C248.855 9.08594 245.141 13.3566 245.141 18.6247C245.141 23.8928 248.855 28.1635 253.436 28.1635ZM251.777 14.8922C251.777 13.976 252.52 13.2332 253.436 13.2332C254.352 13.2332 255.095 13.976 255.095 14.8922V19.0394C255.095 19.9556 254.352 20.6984 253.436 20.6984C252.52 20.6984 251.777 19.9556 251.777 19.0394V14.8922ZM250.118 17.7953C250.576 17.7953 250.947 18.1666 250.947 18.6247V19.0394C250.947 20.4137 252.061 21.5278 253.436 21.5278C254.81 21.5278 255.924 20.4137 255.924 19.0394V18.6247C255.924 18.1666 256.295 17.7953 256.754 17.7953C257.212 17.7953 257.583 18.1666 257.583 18.6247V19.0394C257.583 21.0459 256.158 22.7195 254.265 23.1038V24.0162C254.265 24.4743 253.894 24.8456 253.436 24.8456C252.978 24.8456 252.606 24.4743 252.606 24.0162V23.1038C250.713 22.7195 249.288 21.0459 249.288 19.0394V18.6247C249.288 18.1666 249.66 17.7953 250.118 17.7953Z" fill="#04CBAB"/>
</g>
<defs>
<clipPath id="clip0_1224_173">
<rect width="260" height="260" fill="white"/>
</clipPath>
</defs>
</svg>
