<svg width="260" height="260" viewBox="0 0 260 260" fill="none" xmlns="http://www.w3.org/2000/svg">
<g clip-path="url(#clip0_1225_862)">
<path d="M246 24C249.309 24 252 21.309 252 18C252 14.691 249.309 12 246 12C242.691 12 240 14.691 240 18C240 21.309 242.691 24 246 24ZM246 14C248.206 14 250 15.794 250 18C250 20.206 248.206 22 246 22C243.794 22 242 20.206 242 18C242 15.794 243.794 14 246 14Z" fill="#04CBAB"/>
<path d="M288 26V39C288 40.654 286.654 42 285 42V31C285 28.243 282.757 26 280 26H275C274.448 26 274 26.448 274 27V31V32V33H266C265.448 33 265 33.448 265 34V37H259V34C259 33.448 258.552 33 258 33H250V32V31V27C250 26.448 249.552 26 249 26H244C241.243 26 239 28.243 239 31V42C237.346 42 236 40.654 236 39V26H234V39C234 41.045 235.237 42.802 237 43.576V56H239V44H240H241H249V55C249 55.552 249.448 56 250 56H253H254H255V55V40V39H258H266H269V40V55V56H270H271H274C274.552 56 275 55.552 275 55V44H283H284H285V56H287V43.576C288.763 42.802 290 41.045 290 39V26H288ZM254 37H252H246V31H244V38C244 38.552 244.448 39 245 39H252C252.551 39 253 39.449 253 40V54H251V43C251 42.448 250.552 42 250 42H241V31C241 29.346 242.346 28 244 28H248V31V32V34C248 34.552 248.448 35 249 35H257V37H254ZM274 42C273.448 42 273 42.448 273 43V54H271V40C271 39.449 271.449 39 272 39H279C279.552 39 280 38.552 280 38V31H278V37H272H270H267V35H275C275.552 35 276 34.552 276 34V32V31V28H280C281.654 28 283 29.346 283 31V42H274Z" fill="#04CBAB"/>
<path d="M253 10V13C253 13.431 253.275 13.812 253.684 13.949C253.788 13.983 253.895 14 254 14C254.309 14 254.607 13.856 254.8 13.6L257.5 10H265C266.654 10 268 8.654 268 7V3C268 1.346 266.654 0 265 0H253C251.346 0 250 1.346 250 3V7C250 8.654 251.346 10 253 10ZM252 3C252 2.449 252.449 2 253 2H265C265.551 2 266 2.449 266 3V7C266 7.551 265.551 8 265 8H257C256.685 8 256.389 8.148 256.2 8.4L255 10V9C255 8.448 254.552 8 254 8H253C252.449 8 252 7.551 252 7V3Z" fill="#04CBAB"/>
<path d="M264 4H254V6H264V4Z" fill="#04CBAB"/>
<path d="M260 21C258.346 21 257 22.346 257 24V28C257 29.654 258.346 31 260 31H268C269.654 31 271 29.654 271 28V27.303L272.832 24.555C273.037 24.248 273.056 23.854 272.882 23.529C272.708 23.203 272.369 23 272 23H270.829C270.416 21.836 269.304 21 268 21H260ZM269 24C269 24.552 269.448 25 270 25H270.131L269.168 26.445C269.059 26.609 269 26.803 269 27V28C269 28.551 268.551 29 268 29H260C259.449 29 259 28.551 259 28V24C259 23.449 259.449 23 260 23H268C268.551 23 269 23.449 269 24Z" fill="#04CBAB"/>
<path d="M259 16H257V18H259V16Z" fill="#04CBAB"/>
<path d="M133.867 90.8242C137.055 96.6909 142.374 97.4873 148.724 96.7848" stroke="#04CBAB" stroke-width="2.68" stroke-linecap="round" stroke-linejoin="round"/>
<path d="M133.14 91.5039C131.499 93.5043 130.467 95.4998 129.771 98.2515" stroke="#04CBAB" stroke-width="2.68" stroke-linecap="round" stroke-linejoin="round"/>
<path d="M129.846 99.04C127.685 100.441 130.645 102.462 130.645 102.583C130.645 115.415 149.889 120.583 149.889 103.975" stroke="#04CBAB" stroke-width="2.68" stroke-linecap="round" stroke-linejoin="round"/>
<path d="M127.826 113.013C122.622 101.518 124.413 87.1584 135.603 82.5879" stroke="#04CBAB" stroke-width="2.68" stroke-linecap="round" stroke-linejoin="round"/>
<path d="M139.462 82.5273C159.431 82.5274 154.077 100.176 155.283 111.083" stroke="#04CBAB" stroke-width="2.68" stroke-linecap="round" stroke-linejoin="round"/>
<path d="M139.2 101.214C139.2 100.699 139.2 100.184 139.2 99.6689" stroke="#04CBAB" stroke-width="2.68" stroke-linecap="round" stroke-linejoin="round"/>
<path d="M143.581 101.196C143.581 100.377 143.762 100.239 143.581 99.6162" stroke="#04CBAB" stroke-width="2.68" stroke-linecap="round" stroke-linejoin="round"/>
<path d="M132.146 113.519C129.858 119.724 138.069 123.466 139.046 129.236C139.07 129.371 139.228 136.745 139.638 136.745C141.102 136.745 139.628 128.946 140.23 128.014C144.604 121.233 149.496 121.82 149.496 112.82" stroke="#04CBAB" stroke-width="2.68" stroke-linecap="round" stroke-linejoin="round"/>
<path d="M115.537 138.095C118.081 128.266 118.081 118.941 131.744 113.398" stroke="#04CBAB" stroke-width="2.68" stroke-linecap="round" stroke-linejoin="round"/>
<path d="M149.881 113.398C159.337 113.841 167.439 127.639 167.439 136.744" stroke="#04CBAB" stroke-width="2.68" stroke-linecap="round" stroke-linejoin="round"/>
<path d="M149.448 112.909C150.22 114.801 153.294 120.79 153.636 122.84" stroke="#04CBAB" stroke-width="2.68" stroke-linecap="round" stroke-linejoin="round"/>
<path d="M152.383 122.912C159.73 118.159 159.608 132.974 152.18 127.61C150.271 126.232 152.513 124.059 153.4 122.716" stroke="#04CBAB" stroke-width="2.68" stroke-linecap="round" stroke-linejoin="round"/>
<path d="M132.216 113.696C128.942 116.061 125.535 120.998 125.206 124.826" stroke="#04CBAB" stroke-width="2.68" stroke-linecap="round" stroke-linejoin="round"/>
<path d="M119.563 138.095C114.882 135.687 121.078 122.317 126.287 124.984C130.414 127.096 129.482 137.637 125.007 138.095" stroke="#04CBAB" stroke-width="2.68" stroke-linecap="round" stroke-linejoin="round"/>
<path d="M155.84 132.636C154.202 132.48 152.612 132.926 150.992 133.159" stroke="#04CBAB" stroke-width="2.68" stroke-linecap="round" stroke-linejoin="round"/>
<path d="M57.5873 83.0496H60.8873C61.1911 83.0496 61.4373 83.2958 61.4373 83.5996V86.8996C61.4373 90.5447 58.4824 93.4996 54.8373 93.4996H48.7873C45.1422 93.4996 42.1873 90.5447 42.1873 86.8996V83.5996C42.1873 83.2958 42.4335 83.0496 42.7373 83.0496H46.0373C46.6448 83.0496 47.1373 82.5571 47.1373 81.9496C47.1373 81.3421 46.6448 80.8496 46.0373 80.8496H42.7373C41.2185 80.8496 39.9873 82.0808 39.9873 83.5996V86.8996C39.9873 91.7597 43.9272 95.6996 48.7873 95.6996H54.8373C59.6974 95.6996 63.6373 91.7597 63.6373 86.8996V83.5996C63.6373 82.0808 62.4061 80.8496 60.8873 80.8496H57.5873C56.9798 80.8496 56.4873 81.3421 56.4873 81.9496C56.4873 82.5571 56.9798 83.0496 57.5873 83.0496Z" fill="#04CBAB"/>
<path d="M50.9873 95.4252V118.195C50.9873 119.705 49.7473 120.945 48.2373 120.945H43.8373C43.2298 120.945 42.7373 121.438 42.7373 122.045C42.7373 122.653 43.2298 123.145 43.8373 123.145H48.2373C50.9623 123.145 53.1873 120.92 53.1873 118.195V95.4252C53.1873 94.8177 52.6948 94.3252 52.0873 94.3252C51.4798 94.3252 50.9873 94.8177 50.9873 95.4252Z" fill="#04CBAB"/>
<path d="M42.7366 121.825C42.7366 119.547 40.8899 117.7 38.6116 117.7C36.3333 117.7 34.4866 119.547 34.4866 121.825C34.4866 124.103 36.3333 125.95 38.6116 125.95C40.8899 125.95 42.7366 124.103 42.7366 121.825ZM44.9366 121.825C44.9366 125.318 42.105 128.15 38.6116 128.15C35.1183 128.15 32.2866 125.318 32.2866 121.825C32.2866 118.332 35.1183 115.5 38.6116 115.5C42.105 115.5 44.9366 118.332 44.9366 121.825ZM38.3285 95.7552C41.3354 98.762 41.3354 103.637 38.3285 106.645L30.161 114.812C29.0874 115.885 27.3459 115.885 26.2723 114.812L18.1047 106.645C15.0979 103.637 15.0979 98.762 18.1048 95.7551C20.8649 92.9956 25.1982 92.7686 28.2166 95.0742C31.2351 92.7686 35.5684 92.9956 38.3285 95.7552ZM27.4388 97.3108C25.2911 95.1631 21.8086 95.1631 19.6604 97.3108C17.5127 99.4585 17.5127 102.941 19.6604 105.089L27.8279 113.256C28.0424 113.471 28.3909 113.471 28.6054 113.256L36.7728 105.089C38.9206 102.941 38.9206 99.4585 36.7729 97.3109C34.6247 95.163 31.1422 95.163 28.9945 97.3108C28.5649 97.7403 27.8684 97.7403 27.4388 97.3108V97.3108Z" fill="#04CBAB"/>
<path fill-rule="evenodd" clip-rule="evenodd" d="M73.1639 185.555C66.5437 180.481 57.5 172.099 57.5 164.175C57.5 150.936 69.8754 145.993 80 156.22C90.1245 145.993 102.5 150.936 102.5 164.175C102.5 172.1 93.4563 180.481 86.8362 185.555C83.8392 187.852 82.3407 189 80 189C77.6593 189 76.1608 187.852 73.1639 185.555ZM90.125 158.063C91.0569 158.063 91.8125 158.818 91.8125 159.75V162.563H94.625C95.5569 162.563 96.3125 163.318 96.3125 164.25C96.3125 165.182 95.5569 165.938 94.625 165.938H91.8125V168.75C91.8125 169.682 91.0569 170.438 90.125 170.438C89.193 170.438 88.4375 169.682 88.4375 168.75V165.938H85.625C84.693 165.938 83.9375 165.182 83.9375 164.25C83.9375 163.318 84.693 162.563 85.625 162.563H88.4375V159.75C88.4375 158.818 89.193 158.063 90.125 158.063Z" fill="#04CBAB"/>
<path fill-rule="evenodd" clip-rule="evenodd" d="M215.164 135.555C208.544 130.481 199.5 122.099 199.5 114.175C199.5 100.936 211.875 95.9932 222 106.22C232.125 95.9932 244.5 100.936 244.5 114.175C244.5 122.1 235.456 130.481 228.836 135.555C225.839 137.852 224.341 139 222 139C219.659 139 218.161 137.852 215.164 135.555ZM232.125 108.063C233.057 108.063 233.812 108.818 233.812 109.75V112.563H236.625C237.557 112.563 238.312 113.318 238.312 114.25C238.312 115.182 237.557 115.938 236.625 115.938H233.812V118.75C233.812 119.682 233.057 120.438 232.125 120.438C231.193 120.438 230.437 119.682 230.437 118.75V115.938H227.625C226.693 115.938 225.937 115.182 225.937 114.25C225.937 113.318 226.693 112.563 227.625 112.563H230.437V109.75C230.437 108.818 231.193 108.063 232.125 108.063Z" fill="#04CBAB"/>
<path d="M24 24C27.309 24 30 21.309 30 18C30 14.691 27.309 12 24 12C20.691 12 18 14.691 18 18C18 21.309 20.691 24 24 24ZM24 14C26.206 14 28 15.794 28 18C28 20.206 26.206 22 24 22C21.794 22 20 20.206 20 18C20 15.794 21.794 14 24 14Z" fill="#04CBAB"/>
<path d="M34 26V39C34 40.654 32.654 42 31 42V31C31 28.243 28.757 26 26 26H21C20.448 26 20 26.448 20 27V31V32V33H12C11.448 33 11 33.448 11 34V37H5V34C5 33.448 4.552 33 4 33H-4V32V31V27C-4 26.448 -4.448 26 -5 26H-10C-12.757 26 -15 28.243 -15 31V42C-16.654 42 -18 40.654 -18 39V26H-20V39C-20 41.045 -18.763 42.802 -17 43.576V56H-15V44H-14H-13H-5V55C-5 55.552 -4.552 56 -4 56H-1H0H1V55V40V39H4H12H15V40V55V56H16H17H20C20.552 56 21 55.552 21 55V44H29H30H31V56H33V43.576C34.763 42.802 36 41.045 36 39V26H34ZM0 37H-2H-8V31H-10V38C-10 38.552 -9.552 39 -9 39H-2C-1.449 39 -1 39.449 -1 40V54H-3V43C-3 42.448 -3.448 42 -4 42H-13V31C-13 29.346 -11.654 28 -10 28H-6V31V32V34C-6 34.552 -5.552 35 -5 35H3V37H0ZM20 42C19.448 42 19 42.448 19 43V54H17V40C17 39.449 17.449 39 18 39H25C25.552 39 26 38.552 26 38V31H24V37H18H16H13V35H21C21.552 35 22 34.552 22 34V32V31V28H26C27.654 28 29 29.346 29 31V42H20Z" fill="#04CBAB"/>
<path d="M-1 10V13C-1 13.431 -0.725 13.812 -0.316 13.949C-0.212 13.983 -0.105 14 0 14C0.309 14 0.606999 13.856 0.799999 13.6L3.5 10H11C12.654 10 14 8.654 14 7V3C14 1.346 12.654 0 11 0H-1C-2.654 0 -4 1.346 -4 3V7C-4 8.654 -2.654 10 -1 10ZM-2 3C-2 2.449 -1.551 2 -1 2H11C11.551 2 12 2.449 12 3V7C12 7.551 11.551 8 11 8H3C2.685 8 2.389 8.148 2.2 8.4L1 10V9C1 8.448 0.552 8 0 8H-1C-1.551 8 -2 7.551 -2 7V3Z" fill="#04CBAB"/>
<path d="M10 4H0V6H10V4Z" fill="#04CBAB"/>
<path d="M13 25H7V27H13V25Z" fill="#04CBAB"/>
<path d="M6 21C4.346 21 3 22.346 3 24V28C3 29.654 4.346 31 6 31H14C15.654 31 17 29.654 17 28V27.303L18.832 24.555C19.037 24.248 19.056 23.854 18.882 23.529C18.708 23.203 18.369 23 18 23H16.829C16.416 21.836 15.304 21 14 21H6ZM15 24C15 24.552 15.448 25 16 25H16.131L15.168 26.445C15.059 26.609 15 26.803 15 27V28C15 28.551 14.551 29 14 29H6C5.449 29 5 28.551 5 28V24C5 23.449 5.449 23 6 23H14C14.551 23 15 23.449 15 24Z" fill="#04CBAB"/>
<path d="M5 16H3V18H5V16Z" fill="#04CBAB"/>
<path d="M9 16H7V18H9V16Z" fill="#04CBAB"/>
<path d="M13 16H11V18H13V16Z" fill="#04CBAB"/>
<path d="M146.625 208.375C147.278 208.375 147.807 207.845 147.807 207.192C147.807 206.539 147.278 206.01 146.625 206.01C145.972 206.01 145.442 206.539 145.442 207.192C145.442 207.845 145.972 208.375 146.625 208.375Z" fill="#04CBAB"/>
<path d="M155.376 206.01C154.722 206.01 154.192 206.54 154.192 207.192C154.192 207.845 154.722 208.375 155.376 208.375C156.029 208.375 156.558 207.845 156.558 207.192C156.558 206.54 156.029 206.01 155.376 206.01Z" fill="#04CBAB"/>
<path d="M163.467 204.071C162.876 201.294 161.39 198.848 159.325 197.052C157.069 195.09 154.116 193.899 150.891 193.899C147.672 193.899 144.723 195.086 142.469 197.043C140.391 198.845 138.898 201.303 138.31 204.095C137.454 204.207 136.682 204.604 136.102 205.183C135.409 205.878 134.978 206.844 134.978 207.903C134.978 208.96 135.409 209.927 136.102 210.621C136.796 211.314 137.762 211.745 138.821 211.745C138.894 211.745 138.965 211.743 139.036 211.74C139.582 213.037 140.337 214.227 141.255 215.268L141.11 215.376L153.349 231.872L154.773 230.814L152.375 227.582L160.294 215.877L160.091 215.74C161.214 214.589 162.123 213.229 162.754 211.721C162.892 211.736 163.035 211.745 163.18 211.745C164.238 211.745 165.204 211.314 165.897 210.621C166.59 209.928 167.023 208.96 167.023 207.903C167.023 206.844 166.59 205.878 165.897 205.184C165.267 204.554 164.412 204.141 163.467 204.071ZM149.473 195.765C149.938 195.706 150.411 195.674 150.891 195.674C151.543 195.674 152.18 195.731 152.802 195.839C152.865 195.913 152.931 195.999 152.998 196.098C153.278 196.524 153.561 197.191 153.563 198.247C153.563 199.046 153.395 200.072 152.92 201.362C151.423 200.159 150.571 199.05 150.088 198.136C149.564 197.14 149.469 196.37 149.468 195.925C149.468 195.865 149.47 195.812 149.473 195.765ZM148.404 195.954C148.408 196.557 148.548 197.5 149.147 198.633C149.415 199.14 149.774 199.686 150.25 200.256C149.774 200.064 149.298 199.885 148.849 199.695C148.078 199.371 147.401 199.007 146.942 198.523C146.711 198.28 146.53 198.008 146.402 197.68C146.295 197.407 146.227 197.089 146.205 196.712C146.902 196.387 147.638 196.13 148.404 195.954ZM164.643 209.364C164.265 209.74 163.754 209.971 163.18 209.971C162.942 209.971 162.715 209.928 162.495 209.853L161.654 209.556L161.361 210.397C160.61 212.563 159.204 214.427 157.38 215.746C156.902 216.092 156.397 216.401 155.867 216.667C155.904 216.91 155.922 217.155 155.922 217.405C155.922 217.836 155.867 218.258 155.76 218.664C156.006 218.563 156.249 218.454 156.487 218.338L151.255 226.073L145.631 218.493C145.84 218.587 146.051 218.677 146.266 218.76C146.141 218.325 146.078 217.869 146.078 217.405C146.078 217.19 146.092 216.975 146.12 216.766C145.524 216.482 144.958 216.146 144.429 215.764C142.608 214.455 141.199 212.605 140.439 210.454L140.164 209.676L139.37 209.895C139.187 209.944 139.006 209.971 138.821 209.971C138.247 209.971 137.734 209.74 137.358 209.364C136.982 208.988 136.751 208.476 136.751 207.903C136.751 207.328 136.982 206.815 137.358 206.44C137.734 206.063 138.247 205.833 138.821 205.833C138.857 205.833 138.91 205.837 138.984 205.842L139.809 205.906L139.932 205.09C140.333 202.426 141.684 200.072 143.63 198.383C144.116 197.962 144.639 197.581 145.193 197.249C145.242 197.549 145.315 197.831 145.418 198.09C145.582 198.501 145.812 198.856 146.083 199.161C146.56 199.694 147.155 200.069 147.777 200.376C148.712 200.836 149.721 201.153 150.569 201.549C150.992 201.746 151.374 201.96 151.687 202.207C152 202.454 152.245 202.728 152.419 203.063C152.513 203.244 152.701 203.354 152.904 203.35C153.108 203.345 153.289 203.226 153.374 203.04C154.295 201.047 154.626 199.479 154.626 198.247C154.628 197.407 154.47 196.727 154.247 196.192C155.704 196.655 157.032 197.409 158.162 198.391C160.109 200.085 161.457 202.443 161.854 205.115L161.986 205.994L162.866 205.86C162.983 205.842 163.085 205.833 163.179 205.833C163.754 205.833 164.265 206.063 164.643 206.44C165.019 206.816 165.247 207.328 165.25 207.903C165.247 208.476 165.019 208.989 164.643 209.364Z" fill="#04CBAB"/>
<path d="M151 213.548C149.938 213.548 148.967 213.981 148.272 214.678C147.576 215.373 147.142 216.344 147.143 217.406C147.142 218.467 147.576 219.438 148.272 220.133C148.967 220.83 149.938 221.263 151 221.262C152.062 221.263 153.032 220.83 153.728 220.133C154.425 219.438 154.857 218.467 154.857 217.406C154.857 216.344 154.425 215.373 153.728 214.678C153.032 213.981 152.062 213.548 151 213.548ZM152.795 218.163C152.648 218.511 152.4 218.81 152.088 219.02C151.776 219.23 151.407 219.352 151 219.352C150.728 219.352 150.475 219.297 150.243 219.199C149.894 219.053 149.595 218.804 149.385 218.493C149.175 218.181 149.053 217.812 149.053 217.405C149.053 217.133 149.108 216.88 149.206 216.647C149.353 216.3 149.601 216 149.912 215.79C150.224 215.58 150.594 215.458 151 215.458C151.272 215.458 151.525 215.512 151.758 215.611C152.106 215.758 152.405 216.007 152.616 216.318C152.826 216.629 152.947 216.999 152.948 217.405C152.947 217.677 152.892 217.93 152.795 218.163Z" fill="#04CBAB"/>
<path d="M151.001 211.233C148.381 211.233 146.256 212.503 146.256 214.071C146.256 214.539 146.445 214.98 146.782 215.371C146.987 215.034 147.235 214.719 147.52 214.433C148.448 213.503 149.684 212.991 150.999 212.991C152.318 212.991 153.553 213.503 154.482 214.434C154.768 214.718 155.015 215.034 155.219 215.371C155.556 214.98 155.745 214.539 155.745 214.071C155.745 212.503 153.622 211.233 151.001 211.233Z" fill="#04CBAB"/>
<path d="M170.997 206.309L169.934 206.363L170.997 206.308C170.817 202.732 169.611 199.589 167.894 196.929C166.606 194.931 165.033 193.198 163.375 191.717C160.887 189.495 158.209 187.84 155.975 186.727C154.858 186.17 153.852 185.75 153.022 185.463C152.608 185.319 152.238 185.208 151.909 185.13C151.746 185.091 151.592 185.06 151.444 185.037C151.295 185.015 151.154 185 151.001 185C150.863 185 150.736 185.012 150.605 185.03C150.353 185.066 150.084 185.126 149.778 185.211C149.209 185.369 148.518 185.613 147.728 185.944C146.347 186.523 144.667 187.372 142.9 188.496C140.251 190.182 137.408 192.485 135.149 195.447C134.019 196.927 133.038 198.573 132.31 200.386C131.582 202.198 131.112 204.178 131.003 206.308C130.952 207.324 130.924 208.44 130.924 209.635C130.924 212.972 131.146 216.931 131.726 221.008C132.161 224.066 132.796 227.191 133.697 230.172C134.372 232.407 135.196 234.562 136.198 236.546C137.705 239.522 139.617 242.124 142.066 244.002C143.29 244.94 144.647 245.693 146.139 246.208C147.63 246.724 149.254 247.001 151.001 247C153.07 247.001 154.968 246.611 156.677 245.898C158.172 245.274 159.523 244.405 160.731 243.35C162.847 241.503 164.533 239.094 165.885 236.381C167.912 232.31 169.2 227.54 169.993 222.83C170.784 218.119 171.077 213.468 171.077 209.636C171.077 208.44 171.048 207.324 170.997 206.309ZM168.168 220.709C167.745 223.68 167.128 226.705 166.266 229.556C165.621 231.695 164.838 233.737 163.903 235.586C162.5 238.361 160.755 240.694 158.641 242.313C157.582 243.123 156.43 243.76 155.167 244.196C153.903 244.633 152.523 244.872 151.001 244.872C149.195 244.871 147.592 244.536 146.143 243.933C144.876 243.404 143.724 242.667 142.67 241.746C140.825 240.138 139.282 237.964 138.021 235.432C136.127 231.635 134.874 227.046 134.107 222.477C133.338 217.909 133.052 213.359 133.052 209.635C133.052 208.474 133.08 207.392 133.13 206.417C133.291 203.256 134.344 200.491 135.895 198.082C137.058 196.278 138.503 194.681 140.044 193.304C142.355 191.238 144.887 189.671 146.975 188.632C148.017 188.113 148.95 187.725 149.675 187.474C150.037 187.349 150.348 187.257 150.585 187.201C150.703 187.172 150.803 187.153 150.877 187.142C150.95 187.13 150.999 187.128 151.001 187.129C151.003 187.128 151.041 187.13 151.101 187.138C151.218 187.155 151.412 187.195 151.654 187.262C152.107 187.388 152.728 187.603 153.45 187.907C154.715 188.438 156.3 189.236 157.958 190.291C160.448 191.875 163.104 194.04 165.16 196.738C166.189 198.086 167.069 199.568 167.716 201.179C168.362 202.79 168.776 204.531 168.872 206.416C168.921 207.392 168.949 208.474 168.949 209.636C168.949 212.878 168.731 216.746 168.168 220.709Z" fill="#04CBAB"/>
<path d="M123.625 28.3747C124.278 28.3747 124.807 27.8453 124.807 27.1922C124.807 26.5392 124.278 26.0098 123.625 26.0098C122.972 26.0098 122.442 26.5392 122.442 27.1922C122.442 27.8453 122.972 28.3747 123.625 28.3747Z" fill="#04CBAB"/>
<path d="M132.376 26.0098C131.722 26.0098 131.192 26.5396 131.192 27.1924C131.192 27.8452 131.722 28.3748 132.376 28.3748C133.029 28.3748 133.558 27.8452 133.558 27.1924C133.558 26.5396 133.029 26.0098 132.376 26.0098Z" fill="#04CBAB"/>
<path d="M140.467 24.0714C139.876 21.2941 138.39 18.8482 136.325 17.0517C134.069 15.09 131.116 13.8994 127.891 13.8994C124.672 13.8994 121.723 15.0859 119.469 17.0428C117.391 18.8449 115.898 21.3031 115.31 24.0949C114.454 24.2067 113.682 24.6043 113.102 25.1834C112.409 25.8776 111.978 26.8439 111.978 27.9032C111.978 28.9602 112.409 29.9273 113.102 30.6205C113.796 31.3138 114.762 31.7448 115.821 31.7448C115.894 31.7448 115.965 31.7431 116.036 31.7399C116.582 33.0374 117.337 34.2272 118.255 35.268L118.11 35.3758L130.349 51.8719L131.773 50.8141L129.375 47.5824L137.294 35.8772L137.091 35.7395C138.214 34.5886 139.123 33.2286 139.754 31.7207C139.892 31.736 140.035 31.745 140.18 31.745C141.238 31.745 142.204 31.314 142.897 30.6208C143.59 29.9275 144.023 28.9604 144.023 27.9034C144.023 26.8441 143.59 25.8778 142.897 25.1837C142.267 24.5541 141.412 24.141 140.467 24.0714ZM126.473 15.7655C126.938 15.7064 127.411 15.6739 127.891 15.6739C128.543 15.6739 129.18 15.7314 129.802 15.8391C129.865 15.9128 129.931 15.9987 129.998 16.0982C130.278 16.5235 130.561 17.1909 130.563 18.247C130.563 19.0464 130.395 20.0719 129.92 21.3621C128.423 20.1585 127.571 19.0497 127.088 18.1361C126.564 17.1399 126.469 16.3705 126.468 15.9249C126.468 15.8651 126.47 15.8125 126.473 15.7655ZM125.404 15.9541C125.408 16.5568 125.548 17.4995 126.147 18.6326C126.415 19.1405 126.774 19.6855 127.25 20.2557C126.774 20.0638 126.298 19.8848 125.849 19.6953C125.078 19.3706 124.401 19.0069 123.942 18.5225C123.711 18.2803 123.53 18.0082 123.402 17.6802C123.295 17.4073 123.227 17.089 123.205 16.7123C123.902 16.3867 124.638 16.13 125.404 15.9541ZM141.643 29.3644C141.265 29.7402 140.754 29.9711 140.18 29.9711C139.942 29.9711 139.715 29.9281 139.495 29.8528L138.654 29.5564L138.361 30.3971C137.61 32.5629 136.204 34.4265 134.38 35.7459C133.902 36.0918 133.397 36.4012 132.867 36.6667C132.904 36.9098 132.922 37.1552 132.922 37.4047C132.922 37.8355 132.867 38.2575 132.76 38.6642C133.006 38.5629 133.249 38.4543 133.487 38.3377L128.255 46.0726L122.631 38.4931C122.84 38.587 123.051 38.677 123.266 38.7596C123.141 38.3254 123.078 37.8694 123.078 37.4046C123.078 37.19 123.092 36.9753 123.12 36.7664C122.524 36.4821 121.958 36.1459 121.429 35.7645C119.608 34.4548 118.199 32.6049 117.439 30.4537L117.164 29.6761L116.37 29.8948C116.187 29.9442 116.006 29.971 115.821 29.971C115.247 29.971 114.734 29.7402 114.358 29.3643C113.982 28.9884 113.751 28.4758 113.751 27.9032C113.751 27.3281 113.982 26.8154 114.358 26.4396C114.734 26.063 115.247 25.833 115.821 25.833C115.857 25.833 115.91 25.8371 115.984 25.8419L116.809 25.9059L116.932 25.0902C117.333 22.4255 118.684 20.0719 120.63 18.3832C121.116 17.962 121.639 17.5813 122.193 17.2485C122.242 17.5491 122.315 17.8308 122.418 18.09C122.582 18.5006 122.812 18.8561 123.083 19.1607C123.56 19.6936 124.155 20.0687 124.777 20.3764C125.712 20.8357 126.721 21.1532 127.569 21.5491C127.992 21.746 128.374 21.9598 128.687 22.2069C129 22.454 129.245 22.7285 129.419 23.0631C129.513 23.2437 129.701 23.3538 129.904 23.3498C130.108 23.345 130.289 23.2259 130.374 23.0404C131.295 21.0471 131.626 19.4791 131.626 18.2472C131.628 17.4073 131.47 16.727 131.247 16.1923C132.704 16.6548 134.032 17.4088 135.162 18.3905C137.109 20.085 138.457 22.4434 138.854 25.1146L138.986 25.9943L139.866 25.8598C139.983 25.842 140.085 25.8331 140.179 25.8331C140.754 25.8331 141.265 26.0632 141.643 26.4398C142.019 26.8155 142.247 27.3282 142.25 27.9033C142.247 28.4758 142.019 28.9885 141.643 29.3644Z" fill="#04CBAB"/>
<path d="M128 33.5479C126.938 33.5479 125.967 33.9812 125.272 34.6777C124.576 35.3726 124.142 36.3437 124.143 37.4055C124.142 38.4673 124.576 39.4377 125.272 40.1333C125.967 40.8299 126.938 41.2632 128 41.2624C129.062 41.2631 130.032 40.8298 130.728 40.1333C131.425 39.4376 131.857 38.4673 131.857 37.4055C131.857 36.3437 131.425 35.3726 130.728 34.6777C130.032 33.9811 129.062 33.5479 128 33.5479ZM129.795 38.1629C129.648 38.5111 129.4 38.81 129.088 39.0204C128.776 39.2303 128.407 39.3518 128 39.3518C127.728 39.3518 127.475 39.2974 127.243 39.1994C126.894 39.0528 126.595 38.8042 126.385 38.4931C126.175 38.1813 126.053 37.8119 126.053 37.4054C126.053 37.1332 126.108 36.8797 126.206 36.6472C126.353 36.2998 126.601 36.0001 126.912 35.7895C127.224 35.5798 127.594 35.4582 128 35.4582C128.272 35.4582 128.525 35.5125 128.758 35.6106C129.106 35.7579 129.405 36.0065 129.616 36.3176C129.826 36.6286 129.947 36.9988 129.948 37.4054C129.947 37.6769 129.892 37.9304 129.795 38.1629Z" fill="#04CBAB"/>
<path d="M128.001 31.2334C125.381 31.2334 123.256 32.5034 123.256 34.0715C123.256 34.5389 123.445 34.9802 123.782 35.3714C123.987 35.0337 124.235 34.7186 124.52 34.4327C125.448 33.5029 126.684 32.991 127.999 32.991C129.318 32.991 130.553 33.5028 131.482 34.4341C131.768 34.7185 132.015 35.0336 132.219 35.3713C132.556 34.98 132.745 34.5387 132.745 34.0714C132.745 32.5034 130.622 31.2334 128.001 31.2334Z" fill="#04CBAB"/>
<path d="M147.997 26.3086L146.934 26.3629L147.997 26.3078C147.817 22.7319 146.611 19.5894 144.894 16.9287C143.606 14.9314 142.033 13.198 140.375 11.7167C137.887 9.49512 135.209 7.83965 132.975 6.7268C131.858 6.17037 130.852 5.75005 130.022 5.4633C129.608 5.31908 129.238 5.20816 128.909 5.12957C128.746 5.0907 128.592 5.05982 128.444 5.0373C128.295 5.01538 128.154 5 128.001 5C127.863 5 127.736 5.01211 127.605 5.02991C127.353 5.06551 127.084 5.1263 126.778 5.21143C126.209 5.36934 125.518 5.6131 124.728 5.94441C123.347 6.52348 121.667 7.37223 119.9 8.49561C117.251 10.182 114.408 12.4854 112.149 15.4465C111.019 16.927 110.038 18.5729 109.31 20.3863C108.582 22.1981 108.112 24.1776 108.003 26.3078C107.952 27.3235 107.924 28.4395 107.924 29.6349C107.924 32.9718 108.146 36.9308 108.726 41.0081C109.161 44.0664 109.796 47.1911 110.697 50.1717C111.372 52.4071 112.196 54.5616 113.198 56.546C114.705 59.5217 116.617 62.124 119.066 64.0022C120.29 64.9402 121.647 65.6934 123.139 66.2077C124.63 66.7237 126.254 67.0006 128.001 66.9999C130.07 67.0006 131.968 66.611 133.677 65.8976C135.172 65.2739 136.523 64.4048 137.731 63.3504C139.847 61.5028 141.533 59.094 142.885 56.3808C144.912 52.3101 146.2 47.5404 146.993 42.8297C147.784 38.1191 148.077 33.4676 148.077 29.6358C148.077 28.4396 148.048 27.3235 147.997 26.3086ZM145.168 40.7086C144.745 43.6795 144.128 46.7046 143.266 49.5563C142.621 51.6953 141.838 53.7373 140.903 55.5856C139.5 58.3613 137.755 60.6939 135.641 62.3129C134.582 63.1229 133.43 63.7595 132.167 64.1961C130.903 64.6326 129.523 64.8715 128.001 64.8715C126.195 64.8707 124.592 64.5362 123.143 63.9328C121.876 63.4039 120.724 62.6669 119.67 61.746C117.825 60.1382 116.282 57.9636 115.021 55.4317C113.127 51.6347 111.874 47.0457 111.107 42.4767C110.338 37.9087 110.052 33.3592 110.052 29.6352C110.052 28.4737 110.08 27.3917 110.13 26.4165C110.291 23.2562 111.344 20.491 112.895 18.0822C114.058 16.2777 115.503 14.6806 117.044 13.3036C119.355 11.2383 121.887 9.67107 123.975 8.63184C125.017 8.11259 125.95 7.72473 126.675 7.4737C127.037 7.34898 127.348 7.2567 127.585 7.20076C127.703 7.17242 127.803 7.15305 127.877 7.14166C127.95 7.13028 127.999 7.12786 128.001 7.12871C128.003 7.12786 128.041 7.13028 128.101 7.13839C128.218 7.15462 128.412 7.19507 128.654 7.26227C129.107 7.38785 129.728 7.60327 130.45 7.90698C131.715 8.43834 133.3 9.2361 134.958 10.2914C137.448 11.8747 140.104 14.0398 142.16 16.7376C143.189 18.0862 144.069 19.5676 144.716 21.1786C145.362 22.7904 145.776 24.531 145.872 26.4164C145.921 27.3916 145.949 28.4737 145.949 29.6359C145.949 32.8781 145.731 36.7463 145.168 40.7086Z" fill="#04CBAB"/>
<path d="M242.587 200.05H245.887C246.191 200.05 246.437 200.296 246.437 200.6V203.9C246.437 207.545 243.482 210.5 239.837 210.5H233.787C230.142 210.5 227.187 207.545 227.187 203.9V200.6C227.187 200.296 227.433 200.05 227.737 200.05H231.037C231.644 200.05 232.137 199.557 232.137 198.95C232.137 198.342 231.644 197.85 231.037 197.85H227.737C226.218 197.85 224.987 199.081 224.987 200.6V203.9C224.987 208.76 228.927 212.7 233.787 212.7H239.837C244.697 212.7 248.637 208.76 248.637 203.9V200.6C248.637 199.081 247.406 197.85 245.887 197.85H242.587C241.979 197.85 241.487 198.342 241.487 198.95C241.487 199.557 241.979 200.05 242.587 200.05Z" fill="#04CBAB"/>
<path d="M235.987 212.425V235.195C235.987 236.705 234.747 237.945 233.237 237.945H228.837C228.229 237.945 227.737 238.438 227.737 239.045C227.737 239.653 228.229 240.145 228.837 240.145H233.237C235.962 240.145 238.187 237.92 238.187 235.195V212.425C238.187 211.818 237.694 211.325 237.087 211.325C236.479 211.325 235.987 211.818 235.987 212.425Z" fill="#04CBAB"/>
<path d="M227.737 238.825C227.737 236.547 225.89 234.7 223.612 234.7C221.333 234.7 219.487 236.547 219.487 238.825C219.487 241.103 221.333 242.95 223.612 242.95C225.89 242.95 227.737 241.103 227.737 238.825ZM229.937 238.825C229.937 242.318 227.105 245.15 223.612 245.15C220.118 245.15 217.287 242.318 217.287 238.825C217.287 235.332 220.118 232.5 223.612 232.5C227.105 232.5 229.937 235.332 229.937 238.825ZM223.329 212.755C226.335 215.762 226.335 220.637 223.329 223.645L215.161 231.812C214.087 232.885 212.346 232.885 211.272 231.812L203.105 223.645C200.098 220.637 200.098 215.762 203.105 212.755C205.865 209.996 210.198 209.769 213.217 212.074C216.235 209.769 220.568 209.996 223.329 212.755ZM212.439 214.311C210.291 212.163 206.809 212.163 204.66 214.311C202.513 216.459 202.513 219.941 204.66 222.089L212.828 230.256C213.042 230.471 213.391 230.471 213.605 230.256L221.773 222.089C223.921 219.941 223.921 216.458 221.773 214.311C219.625 212.163 216.142 212.163 213.994 214.311C213.565 214.74 212.868 214.74 212.439 214.311V214.311Z" fill="#04CBAB"/>
<path d="M15 215C18.309 215 21 212.309 21 209C21 205.691 18.309 203 15 203C11.691 203 9 205.691 9 209C9 212.309 11.691 215 15 215ZM15 205C17.206 205 19 206.794 19 209C19 211.206 17.206 213 15 213C12.794 213 11 211.206 11 209C11 206.794 12.794 205 15 205Z" fill="#04CBAB"/>
<path d="M47 215C50.309 215 53 212.309 53 209C53 205.691 50.309 203 47 203C43.691 203 41 205.691 41 209C41 212.309 43.691 215 47 215ZM47 205C49.206 205 51 206.794 51 209C51 211.206 49.206 213 47 213C44.794 213 43 211.206 43 209C43 206.794 44.794 205 47 205Z" fill="#04CBAB"/>
<path d="M57 217V230C57 231.654 55.654 233 54 233V222C54 219.243 51.757 217 49 217H44C43.448 217 43 217.448 43 218V222V223V224H35C34.448 224 34 224.448 34 225V228H28V225C28 224.448 27.552 224 27 224H19V223V222V218C19 217.448 18.552 217 18 217H13C10.243 217 8 219.243 8 222V233C6.346 233 5 231.654 5 230V217H3V230C3 232.045 4.237 233.802 6 234.576V247H8V235H9H10H18V246C18 246.552 18.448 247 19 247H22H23H24V246V231V230H27H35H38V231V246V247H39H40H43C43.552 247 44 246.552 44 246V235H52H53H54V247H56V234.576C57.763 233.802 59 232.045 59 230V217H57ZM23 228H21H15V222H13V229C13 229.552 13.448 230 14 230H21C21.551 230 22 230.449 22 231V245H20V234C20 233.448 19.552 233 19 233H10V222C10 220.346 11.346 219 13 219H17V222V223V225C17 225.552 17.448 226 18 226H26V228H23ZM43 233C42.448 233 42 233.448 42 234V245H40V231C40 230.449 40.449 230 41 230H48C48.552 230 49 229.552 49 229V222H47V228H41H39H36V226H44C44.552 226 45 225.552 45 225V223V222V219H49C50.654 219 52 220.346 52 222V233H43Z" fill="#04CBAB"/>
<path d="M22 201V204C22 204.431 22.275 204.812 22.684 204.949C22.788 204.983 22.895 205 23 205C23.309 205 23.607 204.856 23.8 204.6L26.5 201H34C35.654 201 37 199.654 37 198V194C37 192.346 35.654 191 34 191H22C20.346 191 19 192.346 19 194V198C19 199.654 20.346 201 22 201ZM21 194C21 193.449 21.449 193 22 193H34C34.551 193 35 193.449 35 194V198C35 198.551 34.551 199 34 199H26C25.685 199 25.389 199.148 25.2 199.4L24 201V200C24 199.448 23.552 199 23 199H22C21.449 199 21 198.551 21 198V194Z" fill="#04CBAB"/>
<path d="M33 195H23V197H33V195Z" fill="#04CBAB"/>
<path d="M36 216H30V218H36V216Z" fill="#04CBAB"/>
<path d="M29 212C27.346 212 26 213.346 26 215V219C26 220.654 27.346 222 29 222H37C38.654 222 40 220.654 40 219V218.303L41.832 215.555C42.037 215.248 42.056 214.854 41.882 214.529C41.708 214.203 41.369 214 41 214H39.829C39.416 212.836 38.304 212 37 212H29ZM38 215C38 215.552 38.448 216 39 216H39.131L38.168 217.445C38.059 217.609 38 217.803 38 218V219C38 219.551 37.551 220 37 220H29C28.449 220 28 219.551 28 219V215C28 214.449 28.449 214 29 214H37C37.551 214 38 214.449 38 215Z" fill="#04CBAB"/>
<path d="M28 207H26V209H28V207Z" fill="#04CBAB"/>
<path d="M32 207H30V209H32V207Z" fill="#04CBAB"/>
<path d="M36 207H34V209H36V207Z" fill="#04CBAB"/>
</g>
<defs>
<clipPath id="clip0_1225_862">
<rect width="260" height="260" fill="white"/>
</clipPath>
</defs>
</svg>
